<?xml version="1.0" encoding="UTF-8" standalone="no"?>
<!-- Created with Inkscape (http://www.inkscape.org/) -->

<svg
   xmlns:dc="http://purl.org/dc/elements/1.1/"
   xmlns:cc="http://creativecommons.org/ns#"
   xmlns:rdf="http://www.w3.org/1999/02/22-rdf-syntax-ns#"
   xmlns:svg="http://www.w3.org/2000/svg"
   xmlns="http://www.w3.org/2000/svg"
   xmlns:xlink="http://www.w3.org/1999/xlink"
   xmlns:sodipodi="http://sodipodi.sourceforge.net/DTD/sodipodi-0.dtd"
   xmlns:inkscape="http://www.inkscape.org/namespaces/inkscape"
   width="210mm"
   height="297mm"
   viewBox="0 0 210 297"
   version="1.1"
   id="svg8"
   inkscape:version="0.92.3 (2405546, 2018-03-11)"
   sodipodi:docname="long-term-memory.svg.2020_07_02_14_41_54.0.svg">
  <defs
     id="defs2">
    <marker
       inkscape:stockid="Arrow2Send"
       orient="auto"
       refY="0"
       refX="0"
       id="Arrow2Send"
       style="overflow:visible">
      <path
         inkscape:connector-curvature="0"
         id="path3909"
         style="fill-rule:evenodd;stroke-width:0.625;stroke-linejoin:round"
         d="M 8.7185878,4.0337352 -2.2072895,0.01601326 8.7185884,-4.0017078 c -1.7454984,2.3720609 -1.7354408,5.6174519 -6e-7,8.035443 z"
         transform="matrix(-0.3,0,0,-0.3,0.69,0)" />
    </marker>
    <marker
       inkscape:stockid="Arrow1Lend"
       orient="auto"
       refY="0"
       refX="0"
       id="Arrow1Lend"
       style="overflow:visible">
      <path
         inkscape:connector-curvature="0"
         id="path3879"
         d="M 0,0 5,-5 -12.5,0 5,5 0,0 z"
         style="fill-rule:evenodd;stroke:#000000;stroke-width:1pt"
         transform="matrix(-0.8,0,0,-0.8,-10,0)" />
    </marker>
    <marker
       inkscape:stockid="Arrow2Lend"
       orient="auto"
       refY="0"
       refX="0"
       id="Arrow2Lend"
       style="overflow:visible">
      <path
         inkscape:connector-curvature="0"
         id="path3897"
         style="fill-rule:evenodd;stroke-width:0.625;stroke-linejoin:round"
         d="M 8.7185878,4.0337352 -2.2072895,0.01601326 8.7185884,-4.0017078 c -1.7454984,2.3720609 -1.7354408,5.6174519 -6e-7,8.035443 z"
         transform="matrix(-1.1,0,0,-1.1,-1.1,0)" />
    </marker>
    <marker
       inkscape:stockid="Arrow2Mend"
       orient="auto"
       refY="0"
       refX="0"
       id="Arrow2Mend"
       style="overflow:visible">
      <path
         inkscape:connector-curvature="0"
         id="path3903"
         style="fill-rule:evenodd;stroke-width:0.625;stroke-linejoin:round"
         d="M 8.7185878,4.0337352 -2.2072895,0.01601326 8.7185884,-4.0017078 c -1.7454984,2.3720609 -1.7354408,5.6174519 -6e-7,8.035443 z"
         transform="scale(-0.6,-0.6)" />
    </marker>
    <marker
       inkscape:stockid="Arrow1Mend"
       orient="auto"
       refY="0"
       refX="0"
       id="Arrow1Mend"
       style="overflow:visible">
      <path
         inkscape:connector-curvature="0"
         id="path3885"
         d="M 0,0 5,-5 -12.5,0 5,5 0,0 z"
         style="fill-rule:evenodd;stroke:#000000;stroke-width:1pt"
         transform="matrix(-0.4,0,0,-0.4,-4,0)" />
    </marker>
    <marker
       inkscape:stockid="Arrow2Lend"
       orient="auto"
       refY="0"
       refX="0"
       id="Arrow2Lend-2"
       style="overflow:visible">
      <path
         inkscape:connector-curvature="0"
         id="path3897-9"
         style="fill-rule:evenodd;stroke-width:0.625;stroke-linejoin:round"
         d="M 8.7185878,4.0337352 -2.2072895,0.01601326 8.7185884,-4.0017078 c -1.7454984,2.3720609 -1.7354408,5.6174519 -6e-7,8.035443 z"
         transform="matrix(-1.1,0,0,-1.1,-1.1,0)" />
    </marker>
    <marker
       inkscape:stockid="Arrow2Lend"
       orient="auto"
       refY="0"
       refX="0"
       id="Arrow2Lend-1"
       style="overflow:visible">
      <path
         inkscape:connector-curvature="0"
         id="path3897-94"
         style="fill-rule:evenodd;stroke-width:0.625;stroke-linejoin:round"
         d="M 8.7185878,4.0337352 -2.2072895,0.01601326 8.7185884,-4.0017078 c -1.7454984,2.3720609 -1.7354408,5.6174519 -6e-7,8.035443 z"
         transform="matrix(-1.1,0,0,-1.1,-1.1,0)" />
    </marker>
    <marker
       inkscape:stockid="Arrow2Lend"
       orient="auto"
       refY="0"
       refX="0"
       id="Arrow2Lend-8"
       style="overflow:visible">
      <path
         inkscape:connector-curvature="0"
         id="path3897-4"
         style="fill-rule:evenodd;stroke-width:0.625;stroke-linejoin:round"
         d="M 8.7185878,4.0337352 -2.2072895,0.01601326 8.7185884,-4.0017078 c -1.7454984,2.3720609 -1.7354408,5.6174519 -6e-7,8.035443 z"
         transform="matrix(-1.1,0,0,-1.1,-1.1,0)" />
    </marker>
    <marker
       inkscape:stockid="Arrow2Lend"
       orient="auto"
       refY="0"
       refX="0"
       id="Arrow2Lend-0"
       style="overflow:visible">
      <path
         inkscape:connector-curvature="0"
         id="path3897-3"
         style="fill-rule:evenodd;stroke-width:0.625;stroke-linejoin:round"
         d="M 8.7185878,4.0337352 -2.2072895,0.01601326 8.7185884,-4.0017078 c -1.7454984,2.3720609 -1.7354408,5.6174519 -6e-7,8.035443 z"
         transform="matrix(-1.1,0,0,-1.1,-1.1,0)" />
    </marker>
    <marker
       inkscape:stockid="Arrow2Lend"
       orient="auto"
       refY="0"
       refX="0"
       id="Arrow2Lend-10"
       style="overflow:visible">
      <path
         inkscape:connector-curvature="0"
         id="path3897-6"
         style="fill-rule:evenodd;stroke-width:0.625;stroke-linejoin:round"
         d="M 8.7185878,4.0337352 -2.2072895,0.01601326 8.7185884,-4.0017078 c -1.7454984,2.3720609 -1.7354408,5.6174519 -6e-7,8.035443 z"
         transform="matrix(-1.1,0,0,-1.1,-1.1,0)" />
    </marker>
    <marker
       inkscape:stockid="Arrow2Lend"
       orient="auto"
       refY="0"
       refX="0"
       id="Arrow2Lend-06"
       style="overflow:visible">
      <path
         inkscape:connector-curvature="0"
         id="path3897-1"
         style="fill-rule:evenodd;stroke-width:0.625;stroke-linejoin:round"
         d="M 8.7185878,4.0337352 -2.2072895,0.01601326 8.7185884,-4.0017078 c -1.7454984,2.3720609 -1.7354408,5.6174519 -6e-7,8.035443 z"
         transform="matrix(-1.1,0,0,-1.1,-1.1,0)" />
    </marker>
    <marker
       inkscape:stockid="Arrow2Lend"
       orient="auto"
       refY="0"
       refX="0"
       id="Arrow2Lend-4"
       style="overflow:visible">
      <path
         inkscape:connector-curvature="0"
         id="path3897-7"
         style="fill-rule:evenodd;stroke-width:0.625;stroke-linejoin:round"
         d="M 8.7185878,4.0337352 -2.2072895,0.01601326 8.7185884,-4.0017078 c -1.7454984,2.3720609 -1.7354408,5.6174519 -6e-7,8.035443 z"
         transform="matrix(-1.1,0,0,-1.1,-1.1,0)" />
    </marker>
    <marker
       inkscape:stockid="Arrow2MendS"
       orient="auto"
       refY="0"
       refX="0"
       id="Arrow2MendS"
       style="overflow:visible">
      <path
         inkscape:connector-curvature="0"
         id="path7051"
         style="fill:#0000ff;fill-rule:evenodd;stroke:#0000ff;stroke-width:0.625;stroke-linejoin:round"
         d="M 8.7185878,4.0337352 -2.2072895,0.01601326 8.7185884,-4.0017078 c -1.7454984,2.3720609 -1.7354408,5.6174519 -6e-7,8.035443 z"
         transform="scale(-0.6,-0.6)" />
    </marker>
    <marker
       inkscape:stockid="Arrow2MendSG"
       orient="auto"
       refY="0"
       refX="0"
       id="Arrow2MendSG"
       style="overflow:visible">
      <path
         inkscape:connector-curvature="0"
         id="path7329"
         style="fill:#ff0000;fill-rule:evenodd;stroke:#ff0000;stroke-width:0.625;stroke-linejoin:round"
         d="M 8.7185878,4.0337352 -2.2072895,0.01601326 8.7185884,-4.0017078 c -1.7454984,2.3720609 -1.7354408,5.6174519 -6e-7,8.035443 z"
         transform="scale(-0.6,-0.6)" />
    </marker>
    <marker
       inkscape:stockid="Arrow2MendSGT"
       orient="auto"
       refY="0"
       refX="0"
       id="Arrow2MendSGT"
       style="overflow:visible">
      <path
         inkscape:connector-curvature="0"
         id="path4633"
         style="fill:#000000;fill-rule:evenodd;stroke:#000000;stroke-width:0.625;stroke-linejoin:round"
         d="M 8.7185878,4.0337352 -2.2072895,0.01601326 8.7185884,-4.0017078 c -1.7454984,2.3720609 -1.7354408,5.6174519 -6e-7,8.035443 z"
         transform="scale(-0.6,-0.6)" />
    </marker>
    <marker
       inkscape:stockid="Arrow1Mend"
       orient="auto"
       refY="0"
       refX="0"
       id="Arrow1Mend-2"
       style="overflow:visible">
      <path
         inkscape:connector-curvature="0"
         id="path3885-9"
         d="M 0,0 5,-5 -12.5,0 5,5 Z"
         style="fill-rule:evenodd;stroke:#000000;stroke-width:1.00000003pt"
         transform="matrix(-0.4,0,0,-0.4,-4,0)" />
    </marker>
    <marker
       inkscape:stockid="Arrow1Mend"
       orient="auto"
       refY="0"
       refX="0"
       id="marker1307"
       style="overflow:visible">
      <path
         inkscape:connector-curvature="0"
         id="path1305"
         d="M 0,0 5,-5 -12.5,0 5,5 Z"
         style="fill-rule:evenodd;stroke:#000000;stroke-width:1.00000003pt"
         transform="matrix(-0.4,0,0,-0.4,-4,0)" />
    </marker>
    <marker
       inkscape:stockid="Arrow2Send"
       orient="auto"
       refY="0"
       refX="0"
       id="Arrow2Send-2"
       style="overflow:visible">
      <path
         inkscape:connector-curvature="0"
         id="path3909-9"
         style="fill-rule:evenodd;stroke-width:0.625;stroke-linejoin:round"
         d="M 8.7185878,4.0337352 -2.2072895,0.01601326 8.7185884,-4.0017078 c -1.7454984,2.3720609 -1.7354408,5.6174519 -6e-7,8.035443 z"
         transform="matrix(-0.3,0,0,-0.3,0.69,0)" />
    </marker>
    <marker
       inkscape:stockid="Arrow1Lend"
       orient="auto"
       refY="0"
       refX="0"
       id="Arrow1Lend-1"
       style="overflow:visible">
      <path
         inkscape:connector-curvature="0"
         id="path3879-2"
         d="M 0,0 5,-5 -12.5,0 5,5 0,0 z"
         style="fill-rule:evenodd;stroke:#000000;stroke-width:1pt"
         transform="matrix(-0.8,0,0,-0.8,-10,0)" />
    </marker>
    <marker
       inkscape:stockid="Arrow2Lend"
       orient="auto"
       refY="0"
       refX="0"
       id="Arrow2Lend-7"
       style="overflow:visible">
      <path
         inkscape:connector-curvature="0"
         id="path3897-0"
         style="fill-rule:evenodd;stroke-width:0.625;stroke-linejoin:round"
         d="M 8.7185878,4.0337352 -2.2072895,0.01601326 8.7185884,-4.0017078 c -1.7454984,2.3720609 -1.7354408,5.6174519 -6e-7,8.035443 z"
         transform="matrix(-1.1,0,0,-1.1,-1.1,0)" />
    </marker>
    <marker
       inkscape:stockid="Arrow2Mend"
       orient="auto"
       refY="0"
       refX="0"
       id="Arrow2Mend-9"
       style="overflow:visible">
      <path
         inkscape:connector-curvature="0"
         id="path3903-3"
         style="fill-rule:evenodd;stroke-width:0.625;stroke-linejoin:round"
         d="M 8.7185878,4.0337352 -2.2072895,0.01601326 8.7185884,-4.0017078 c -1.7454984,2.3720609 -1.7354408,5.6174519 -6e-7,8.035443 z"
         transform="scale(-0.6,-0.6)" />
    </marker>
    <marker
       inkscape:stockid="Arrow1Mend"
       orient="auto"
       refY="0"
       refX="0"
       id="Arrow1Mend-6"
       style="overflow:visible">
      <path
         inkscape:connector-curvature="0"
         id="path3885-0"
         d="M 0,0 5,-5 -12.5,0 5,5 0,0 z"
         style="fill-rule:evenodd;stroke:#000000;stroke-width:1pt"
         transform="matrix(-0.4,0,0,-0.4,-4,0)" />
    </marker>
    <marker
       inkscape:stockid="Arrow2Lend"
       orient="auto"
       refY="0"
       refX="0"
       id="Arrow2Lend-2-6"
       style="overflow:visible">
      <path
         inkscape:connector-curvature="0"
         id="path3897-9-2"
         style="fill-rule:evenodd;stroke-width:0.625;stroke-linejoin:round"
         d="M 8.7185878,4.0337352 -2.2072895,0.01601326 8.7185884,-4.0017078 c -1.7454984,2.3720609 -1.7354408,5.6174519 -6e-7,8.035443 z"
         transform="matrix(-1.1,0,0,-1.1,-1.1,0)" />
    </marker>
    <marker
       inkscape:stockid="Arrow2Lend"
       orient="auto"
       refY="0"
       refX="0"
       id="Arrow2Lend-1-6"
       style="overflow:visible">
      <path
         inkscape:connector-curvature="0"
         id="path3897-94-1"
         style="fill-rule:evenodd;stroke-width:0.625;stroke-linejoin:round"
         d="M 8.7185878,4.0337352 -2.2072895,0.01601326 8.7185884,-4.0017078 c -1.7454984,2.3720609 -1.7354408,5.6174519 -6e-7,8.035443 z"
         transform="matrix(-1.1,0,0,-1.1,-1.1,0)" />
    </marker>
    <marker
       inkscape:stockid="Arrow2Lend"
       orient="auto"
       refY="0"
       refX="0"
       id="Arrow2Lend-8-8"
       style="overflow:visible">
      <path
         inkscape:connector-curvature="0"
         id="path3897-4-7"
         style="fill-rule:evenodd;stroke-width:0.625;stroke-linejoin:round"
         d="M 8.7185878,4.0337352 -2.2072895,0.01601326 8.7185884,-4.0017078 c -1.7454984,2.3720609 -1.7354408,5.6174519 -6e-7,8.035443 z"
         transform="matrix(-1.1,0,0,-1.1,-1.1,0)" />
    </marker>
    <marker
       inkscape:stockid="Arrow2Lend"
       orient="auto"
       refY="0"
       refX="0"
       id="Arrow2Lend-0-9"
       style="overflow:visible">
      <path
         inkscape:connector-curvature="0"
         id="path3897-3-2"
         style="fill-rule:evenodd;stroke-width:0.625;stroke-linejoin:round"
         d="M 8.7185878,4.0337352 -2.2072895,0.01601326 8.7185884,-4.0017078 c -1.7454984,2.3720609 -1.7354408,5.6174519 -6e-7,8.035443 z"
         transform="matrix(-1.1,0,0,-1.1,-1.1,0)" />
    </marker>
    <marker
       inkscape:stockid="Arrow2Lend"
       orient="auto"
       refY="0"
       refX="0"
       id="Arrow2Lend-10-0"
       style="overflow:visible">
      <path
         inkscape:connector-curvature="0"
         id="path3897-6-2"
         style="fill-rule:evenodd;stroke-width:0.625;stroke-linejoin:round"
         d="M 8.7185878,4.0337352 -2.2072895,0.01601326 8.7185884,-4.0017078 c -1.7454984,2.3720609 -1.7354408,5.6174519 -6e-7,8.035443 z"
         transform="matrix(-1.1,0,0,-1.1,-1.1,0)" />
    </marker>
    <marker
       inkscape:stockid="Arrow2Lend"
       orient="auto"
       refY="0"
       refX="0"
       id="Arrow2Lend-06-3"
       style="overflow:visible">
      <path
         inkscape:connector-curvature="0"
         id="path3897-1-7"
         style="fill-rule:evenodd;stroke-width:0.625;stroke-linejoin:round"
         d="M 8.7185878,4.0337352 -2.2072895,0.01601326 8.7185884,-4.0017078 c -1.7454984,2.3720609 -1.7354408,5.6174519 -6e-7,8.035443 z"
         transform="matrix(-1.1,0,0,-1.1,-1.1,0)" />
    </marker>
    <marker
       inkscape:stockid="Arrow2Lend"
       orient="auto"
       refY="0"
       refX="0"
       id="Arrow2Lend-4-5"
       style="overflow:visible">
      <path
         inkscape:connector-curvature="0"
         id="path3897-7-9"
         style="fill-rule:evenodd;stroke-width:0.625;stroke-linejoin:round"
         d="M 8.7185878,4.0337352 -2.2072895,0.01601326 8.7185884,-4.0017078 c -1.7454984,2.3720609 -1.7354408,5.6174519 -6e-7,8.035443 z"
         transform="matrix(-1.1,0,0,-1.1,-1.1,0)" />
    </marker>
    <marker
       inkscape:stockid="Arrow2MendS"
       orient="auto"
       refY="0"
       refX="0"
       id="Arrow2MendS-2"
       style="overflow:visible">
      <path
         inkscape:connector-curvature="0"
         id="path7051-2"
         style="fill:#0000ff;fill-rule:evenodd;stroke:#0000ff;stroke-width:0.625;stroke-linejoin:round"
         d="M 8.7185878,4.0337352 -2.2072895,0.01601326 8.7185884,-4.0017078 c -1.7454984,2.3720609 -1.7354408,5.6174519 -6e-7,8.035443 z"
         transform="scale(-0.6,-0.6)" />
    </marker>
    <marker
       inkscape:stockid="Arrow2MendSG"
       orient="auto"
       refY="0"
       refX="0"
       id="Arrow2MendSG-8"
       style="overflow:visible">
      <path
         inkscape:connector-curvature="0"
         id="path7329-9"
         style="fill:#ff0000;fill-rule:evenodd;stroke:#ff0000;stroke-width:0.625;stroke-linejoin:round"
         d="M 8.7185878,4.0337352 -2.2072895,0.01601326 8.7185884,-4.0017078 c -1.7454984,2.3720609 -1.7354408,5.6174519 -6e-7,8.035443 z"
         transform="scale(-0.6,-0.6)" />
    </marker>
    <marker
       inkscape:stockid="Arrow2MendSGT"
       orient="auto"
       refY="0"
       refX="0"
       id="Arrow2MendSGT-7"
       style="overflow:visible">
      <path
         inkscape:connector-curvature="0"
         id="path4633-3"
         style="fill:#000000;fill-rule:evenodd;stroke:#000000;stroke-width:0.625;stroke-linejoin:round"
         d="M 8.7185878,4.0337352 -2.2072895,0.01601326 8.7185884,-4.0017078 c -1.7454984,2.3720609 -1.7354408,5.6174519 -6e-7,8.035443 z"
         transform="scale(-0.6,-0.6)" />
    </marker>
    <marker
       inkscape:stockid="Arrow1Mend"
       orient="auto"
       refY="0"
       refX="0"
       id="Arrow1Mend-7"
       style="overflow:visible">
      <path
         inkscape:connector-curvature="0"
         id="path3885-8"
         d="M 0,0 5,-5 -12.5,0 5,5 Z"
         style="fill-rule:evenodd;stroke:#000000;stroke-width:1.00000003pt"
         transform="matrix(-0.4,0,0,-0.4,-4,0)" />
    </marker>
    <marker
       inkscape:stockid="Arrow1Mend"
       orient="auto"
       refY="0"
       refX="0"
       id="Arrow1Mend-5"
       style="overflow:visible">
      <path
         inkscape:connector-curvature="0"
         id="path3885-03"
         d="M 0,0 5,-5 -12.5,0 5,5 Z"
         style="fill-rule:evenodd;stroke:#000000;stroke-width:1.00000003pt"
         transform="matrix(-0.4,0,0,-0.4,-4,0)" />
    </marker>
    <marker
       inkscape:stockid="Arrow1Mend"
       orient="auto"
       refY="0"
       refX="0"
       id="Arrow1Mend-7-0"
       style="overflow:visible">
      <path
         inkscape:connector-curvature="0"
         id="path3885-8-6"
         d="M 0,0 5,-5 -12.5,0 5,5 Z"
         style="fill-rule:evenodd;stroke:#000000;stroke-width:1.00000003pt"
         transform="matrix(-0.4,0,0,-0.4,-4,0)" />
    </marker>
  </defs>
  <sodipodi:namedview
     id="base"
     pagecolor="#ffffff"
     bordercolor="#666666"
     borderopacity="1.0"
     inkscape:pageopacity="0.0"
     inkscape:pageshadow="2"
     inkscape:zoom="1"
     inkscape:cx="363.07526"
     inkscape:cy="605.42742"
     inkscape:document-units="mm"
     inkscape:current-layer="layer1"
     showgrid="false"
     inkscape:window-width="1050"
     inkscape:window-height="1659"
     inkscape:window-x="0"
     inkscape:window-y="0"
     inkscape:window-maximized="1"
     inkscape:snap-global="false" />
  <metadata
     id="metadata5">
    <rdf:RDF>
      <cc:Work
         rdf:about="">
        <dc:format>image/svg+xml</dc:format>
        <dc:type
           rdf:resource="http://purl.org/dc/dcmitype/StillImage" />
        <dc:title />
      </cc:Work>
    </rdf:RDF>
  </metadata>
  <g
     inkscape:label="Layer 1"
     inkscape:groupmode="layer"
     id="layer1">
    <ellipse
       style="opacity:1;vector-effect:none;fill:#ffffff;fill-opacity:1;stroke:#000000;stroke-width:0.52916664;stroke-linecap:round;stroke-linejoin:round;stroke-miterlimit:4;stroke-dasharray:none;stroke-dashoffset:0;stroke-opacity:1;paint-order:stroke fill markers"
       id="path10-7"
       cx="167.74591"
       cy="168.14751"
       rx="16.933336"
       ry="4.2333331" />
    <path
       style="opacity:1;vector-effect:none;fill:#ffffff;fill-opacity:1;stroke:#000000;stroke-width:0.26458332;stroke-linecap:square;stroke-linejoin:miter;stroke-miterlimit:4;stroke-dasharray:none;stroke-dashoffset:0;stroke-opacity:1;paint-order:normal"
       d="m 150.70147,167.98752 v -18.06916 h 34.09931 v 18.06916"
       id="rect12"
       inkscape:connector-curvature="0"
       sodipodi:nodetypes="cccc" />
    <ellipse
       style="opacity:1;vector-effect:none;fill:#ffffff;fill-opacity:1;stroke:#000000;stroke-width:0.52916664;stroke-linecap:round;stroke-linejoin:round;stroke-miterlimit:4;stroke-dasharray:none;stroke-dashoffset:0;stroke-opacity:1;paint-order:stroke fill markers"
       id="path10"
       cx="167.74591"
       cy="150.1561"
       rx="16.933334"
       ry="4.2333331" />
    <text
       xml:space="preserve"
       style="font-style:normal;font-variant:normal;font-weight:normal;font-stretch:normal;font-size:7.05555534px;line-height:1.25;font-family:'Times New Roman';-inkscape-font-specification:'Times New Roman, Normal';font-variant-ligatures:normal;font-variant-caps:normal;font-variant-numeric:normal;font-feature-settings:normal;text-align:start;letter-spacing:0px;word-spacing:0px;writing-mode:lr-tb;text-anchor:start;fill:#000000;fill-opacity:1;stroke:none;stroke-width:0.26458332"
       x="167.39656"
       y="184.28732"
       id="text868"><tspan
         sodipodi:role="line"
         x="167.39656"
         y="184.28732"
         style="text-align:center;text-anchor:middle;stroke-width:0.26458332"
         id="tspan870">content-addressable</tspan><tspan
         sodipodi:role="line"
         x="167.39656"
         y="193.10677"
         style="text-align:center;text-anchor:middle;stroke-width:0.26458332"
         id="tspan874">long-term memory</tspan></text>
    <rect
       inkscape:tile-y0="125.41771"
       inkscape:tile-x0="69.056242"
       rx="0.76067609"
       ry="0.92604077"
       y="125.41772"
       x="69.056244"
       height="8.8635368"
       width="1.6536438"
       id="use950"
       style="opacity:1;vector-effect:none;fill:#0000ff;fill-opacity:0.9885057;stroke:none;stroke-width:0.52916664;stroke-linecap:round;stroke-linejoin:round;stroke-miterlimit:4;stroke-dasharray:none;stroke-dashoffset:0;stroke-opacity:1;paint-order:stroke fill markers"
       inkscape:tile-cx="69.883064"
       inkscape:tile-cy="129.84948"
       inkscape:tile-w="1.6536438"
       inkscape:tile-h="8.8635366" />
    <text
       xml:space="preserve"
       style="font-style:normal;font-variant:normal;font-weight:normal;font-stretch:normal;font-size:7.05555534px;line-height:1.25;font-family:'Times New Roman';-inkscape-font-specification:'Times New Roman, Normal';font-variant-ligatures:normal;font-variant-caps:normal;font-variant-numeric:normal;font-feature-settings:normal;text-align:start;letter-spacing:0px;word-spacing:0px;writing-mode:lr-tb;text-anchor:start;fill:#000000;fill-opacity:1;stroke:none;stroke-width:0.26458332"
       x="45.686787"
       y="127.13749"
       id="text966"><tspan
         sodipodi:role="line"
         id="tspan964"
         x="45.686787"
         y="127.13749"
         style="text-align:center;text-anchor:middle;stroke-width:0.26458332">hidden-state</tspan><tspan
         sodipodi:role="line"
         x="45.686787"
         y="135.95694"
         style="text-align:center;text-anchor:middle;stroke-width:0.26458332"
         id="tspan968">of BERT</tspan></text>
    <ellipse
       inkscape:tile-y0="178.37588"
       inkscape:tile-x0="32.065483"
       ry="1.2814157"
       rx="1.2720139"
       cy="182.56778"
       cx="68.262497"
       id="use972"
       style="opacity:1;vector-effect:none;fill:#ff6600;fill-opacity:1;stroke:none;stroke-width:0.26458332;stroke-linecap:round;stroke-linejoin:miter;stroke-miterlimit:4;stroke-dasharray:none;stroke-dashoffset:0;stroke-opacity:1;paint-order:normal" />
    <ellipse
       inkscape:tile-y0="178.37588"
       inkscape:tile-x0="32.065483"
       ry="1.2814157"
       rx="1.2720139"
       cy="182.56778"
       cx="77.909447"
       id="use974"
       style="opacity:1;vector-effect:none;fill:#ff6600;fill-opacity:1;stroke:none;stroke-width:0.26458332;stroke-linecap:round;stroke-linejoin:miter;stroke-miterlimit:4;stroke-dasharray:none;stroke-dashoffset:0;stroke-opacity:1;paint-order:normal" />
    <ellipse
       inkscape:tile-y0="178.37588"
       inkscape:tile-x0="32.065483"
       ry="1.2814157"
       rx="1.2720139"
       cy="182.56778"
       cx="96.552223"
       id="use976"
       style="opacity:1;vector-effect:none;fill:#ff6600;fill-opacity:1;stroke:none;stroke-width:0.26458332;stroke-linecap:round;stroke-linejoin:miter;stroke-miterlimit:4;stroke-dasharray:none;stroke-dashoffset:0;stroke-opacity:1;paint-order:normal" />
    <text
       xml:space="preserve"
       style="font-style:normal;font-variant:normal;font-weight:normal;font-stretch:normal;font-size:7.05555534px;line-height:1.25;font-family:'Times New Roman';-inkscape-font-specification:'Times New Roman, Normal';font-variant-ligatures:normal;font-variant-caps:normal;font-variant-numeric:normal;font-feature-settings:normal;text-align:start;letter-spacing:0px;word-spacing:0px;writing-mode:lr-tb;text-anchor:start;fill:#000000;fill-opacity:1;stroke:none;stroke-width:0.26458332"
       x="65.326912"
       y="190.86989"
       id="text984"><tspan
         sodipodi:role="line"
         id="tspan982"
         x="65.326912"
         y="190.86989"
         style="stroke-width:0.26458332">Je suis étudiant</tspan></text>
    <path
       style="fill:none;stroke:#000000;stroke-width:0.5291667;stroke-linecap:butt;stroke-linejoin:miter;stroke-miterlimit:4;stroke-dasharray:none;stroke-opacity:1;marker-end:url(#Arrow1Mend)"
       d="M 82.020834,177.40833 V 147.51042"
       id="path1259"
       inkscape:connector-curvature="0" />
    <path
       style="fill:none;stroke:#000000;stroke-width:0.5291667;stroke-linecap:butt;stroke-linejoin:miter;stroke-miterlimit:4;stroke-dasharray:none;stroke-opacity:1;marker-end:url(#Arrow1Mend)"
       d="M 86.783331,177.40833 V 147.51042"
       id="path1259-6"
       inkscape:connector-curvature="0" />
    <text
       xml:space="preserve"
       style="font-style:normal;font-variant:normal;font-weight:normal;font-stretch:normal;font-size:7.05555534px;line-height:1.25;font-family:'Times New Roman';-inkscape-font-specification:'Times New Roman, Normal';font-variant-ligatures:normal;font-variant-caps:normal;font-variant-numeric:normal;font-feature-settings:normal;text-align:start;letter-spacing:0px;word-spacing:0px;writing-mode:lr-tb;text-anchor:start;fill:#000000;fill-opacity:1;stroke:none;stroke-width:0.26458332"
       x="58.737503"
       y="164.70836"
       id="text1293"><tspan
         sodipodi:role="line"
         id="tspan1291"
         x="58.737503"
         y="164.70836"
         style="stroke-width:0.26458332">encode</tspan></text>
    <ellipse
       inkscape:tile-y0="178.37588"
       inkscape:tile-x0="32.065483"
       ry="1.2814157"
       rx="1.2720139"
       cy="67.77932"
       cx="81.783997"
       id="use972-1"
       style="opacity:1;vector-effect:none;fill:#ff6600;fill-opacity:1;stroke:none;stroke-width:0.26458332;stroke-linecap:round;stroke-linejoin:miter;stroke-miterlimit:4;stroke-dasharray:none;stroke-dashoffset:0;stroke-opacity:1;paint-order:normal" />
    <ellipse
       inkscape:tile-y0="178.37588"
       inkscape:tile-x0="32.065483"
       ry="1.2814157"
       rx="1.2720139"
       cy="67.77932"
       cx="89.314278"
       id="use974-2"
       style="opacity:1;vector-effect:none;fill:#ff6600;fill-opacity:1;stroke:none;stroke-width:0.26458332;stroke-linecap:round;stroke-linejoin:miter;stroke-miterlimit:4;stroke-dasharray:none;stroke-dashoffset:0;stroke-opacity:1;paint-order:normal" />
    <ellipse
       inkscape:tile-y0="178.37588"
       inkscape:tile-x0="32.065483"
       ry="1.2814157"
       rx="1.2720139"
       cy="67.77932"
       cx="105.31121"
       id="use976-7"
       style="opacity:1;vector-effect:none;fill:#ff6600;fill-opacity:1;stroke:none;stroke-width:0.26458332;stroke-linecap:round;stroke-linejoin:miter;stroke-miterlimit:4;stroke-dasharray:none;stroke-dashoffset:0;stroke-opacity:1;paint-order:normal" />
    <text
       xml:space="preserve"
       style="font-style:normal;font-variant:normal;font-weight:normal;font-stretch:normal;font-size:7.05555534px;line-height:1.25;font-family:'Times New Roman';-inkscape-font-specification:'Times New Roman, Normal';font-variant-ligatures:normal;font-variant-caps:normal;font-variant-numeric:normal;font-feature-settings:normal;text-align:start;letter-spacing:0px;word-spacing:0px;writing-mode:lr-tb;text-anchor:start;fill:#000000;fill-opacity:1;stroke:none;stroke-width:0.26458332"
       x="80.435913"
       y="76.081413"
       id="text984-0"><tspan
         sodipodi:role="line"
         id="tspan982-9"
         x="80.435913"
         y="76.081413"
         style="stroke-width:0.26458332">I am student</tspan></text>
    <path
       style="fill:none;stroke:#000000;stroke-width:0.52916676;stroke-linecap:butt;stroke-linejoin:miter;stroke-miterlimit:4;stroke-dasharray:none;stroke-opacity:1;marker-end:url(#Arrow1Mend-2)"
       d="M 93.425667,111.83242 V 81.934508"
       id="path1259-3"
       inkscape:connector-curvature="0" />
    <path
       style="fill:none;stroke:#000000;stroke-width:0.52916676;stroke-linecap:butt;stroke-linejoin:miter;stroke-miterlimit:4;stroke-dasharray:none;stroke-opacity:1;marker-end:url(#Arrow1Mend-2)"
       d="M 98.188164,111.83242 V 81.934508"
       id="path1259-6-6"
       inkscape:connector-curvature="0" />
    <text
       xml:space="preserve"
       style="font-style:normal;font-variant:normal;font-weight:normal;font-stretch:normal;font-size:7.05555534px;line-height:1.25;font-family:'Times New Roman';-inkscape-font-specification:'Times New Roman, Normal';font-variant-ligatures:normal;font-variant-caps:normal;font-variant-numeric:normal;font-feature-settings:normal;text-align:start;letter-spacing:0px;word-spacing:0px;writing-mode:lr-tb;text-anchor:start;fill:#000000;fill-opacity:1;stroke:none;stroke-width:0.26458332"
       x="69.613174"
       y="99.132416"
       id="text1293-0"><tspan
         sodipodi:role="line"
         id="tspan1291-6"
         x="69.613174"
         y="99.132416"
         style="stroke-width:0.26458332">decode</tspan></text>
    <rect
       style="opacity:1;vector-effect:none;fill:#552200;fill-opacity:0;stroke:#030303;stroke-width:0.26458332;stroke-linecap:round;stroke-linejoin:round;stroke-miterlimit:4;stroke-dasharray:none;stroke-dashoffset:0;stroke-opacity:1;paint-order:stroke fill markers"
       id="rect217"
       width="108.47916"
       height="28.574993"
       x="23.018749"
       y="114.96667"
       ry="10.318747"
       rx="0" />
    <use
       x="0"
       y="0"
       inkscape:tiled-clone-of="#use950"
       xlink:href="#use950"
       id="use1128" />
    <use
       x="0"
       y="0"
       inkscape:tiled-clone-of="#use950"
       xlink:href="#use950"
       transform="translate(5.7877533)"
       id="use1130" />
    <use
       x="0"
       y="0"
       inkscape:tiled-clone-of="#use950"
       xlink:href="#use950"
       transform="translate(11.575507)"
       id="use1132" />
    <use
       x="0"
       y="0"
       inkscape:tiled-clone-of="#use950"
       xlink:href="#use950"
       transform="translate(17.36326)"
       id="use1134" />
    <use
       x="0"
       y="0"
       inkscape:tiled-clone-of="#use950"
       xlink:href="#use950"
       transform="translate(23.151013)"
       id="use1136" />
    <use
       x="0"
       y="0"
       inkscape:tiled-clone-of="#use950"
       xlink:href="#use950"
       transform="translate(28.938767)"
       id="use1138" />
    <use
       x="0"
       y="0"
       inkscape:tiled-clone-of="#use950"
       xlink:href="#use950"
       transform="translate(34.72652)"
       id="use1140" />
    <use
       x="0"
       y="0"
       inkscape:tiled-clone-of="#use950"
       xlink:href="#use950"
       transform="translate(40.514273)"
       id="use1142" />
    <use
       x="0"
       y="0"
       inkscape:tiled-clone-of="#use950"
       xlink:href="#use950"
       transform="translate(46.302027)"
       id="use1144" />
    <use
       x="0"
       y="0"
       inkscape:tiled-clone-of="#use950"
       xlink:href="#use950"
       transform="translate(52.08978)"
       id="use1146" />
    <g
       id="g1195"
       transform="translate(12.699998,28.045841)">
      <use
         height="100%"
         width="100%"
         id="use1138-6"
         transform="translate(73.587262,4.1671813)"
         xlink:href="#use950"
         inkscape:tiled-clone-of="#use950"
         y="0"
         x="0" />
      <use
         height="100%"
         width="100%"
         id="use1140-7"
         transform="translate(79.375014,4.1671813)"
         xlink:href="#use950"
         inkscape:tiled-clone-of="#use950"
         y="0"
         x="0" />
      <use
         height="100%"
         width="100%"
         id="use1142-5"
         transform="translate(85.162767,4.1671813)"
         xlink:href="#use950"
         inkscape:tiled-clone-of="#use950"
         y="0"
         x="0" />
      <use
         height="100%"
         width="100%"
         id="use1144-3"
         transform="translate(90.950522,4.1671813)"
         xlink:href="#use950"
         inkscape:tiled-clone-of="#use950"
         y="0"
         x="0" />
      <use
         height="100%"
         width="100%"
         id="use1146-5"
         transform="translate(96.738274,4.1671813)"
         xlink:href="#use950"
         inkscape:tiled-clone-of="#use950"
         y="0"
         x="0" />
    </g>
    <g
       transform="matrix(0,0.26458333,-0.16924844,0,137.24691,-0.28181734)"
       inkscape:label="Layer 1"
       id="layer1-6">
      <g
         transform="matrix(-0.20634921,0,0,0.72265114,552.39489,120.67011)"
         style="font-style:normal;font-variant:normal;font-weight:normal;font-stretch:normal;font-size:64px;line-height:125%;font-family:'Latin Modern Math';-inkscape-font-specification:'Latin Modern Math';text-align:center;letter-spacing:0px;word-spacing:0px;writing-mode:lr-tb;text-anchor:middle;fill:#4d4d4d;fill-opacity:1;stroke:none"
         id="flowRoot6939">
        <path
           d="m 179.75619,399.02851 c -15.8381,-5.04692 -26.11059,-15.1561 -29.93864,-38.59417 l -8.38841,-51.35994 c -4.70025,-28.77839 -20.93109,-36.8129 -38.58668,-43.04735 17.13631,-5.93755 34.62022,-14.26491 38.58668,-40.37544 l 8.38841,-55.21935 c 3.56081,-23.44013 13.58126,-32.65661 29.93864,-38.89105 -15.8381,0.29687 -15.23894,2.37503 -21.21069,7.71883 -7.26995,6.8282 -16.28422,18.11981 -19.03371,36.21915 l -8.38841,55.21935 c -3.2453,21.36315 -29.57913,29.39096 -44.897963,35.32851 16.097753,5.93757 40.906253,12.48534 44.897963,36.21915 l 8.38841,49.87555 c 3.44286,20.47041 11.50412,32.06286 18.25478,38.89105 5.71211,5.64068 5.11295,7.71883 21.98962,8.01571"
           style="font-size:300px;font-family:'TeX Gyre Pagella';-inkscape-font-specification:'TeX Gyre Pagella';fill:#4d4d4d;stroke:none"
           id="path7003"
           inkscape:connector-curvature="0"
           sodipodi:nodetypes="csscssccsscsscc" />
      </g>
    </g>
    <g
       transform="matrix(0,0.26458333,-0.10875676,0,148.00978,-0.28181847)"
       inkscape:label="Layer 1"
       id="layer1-6-1">
      <g
         transform="matrix(-0.20634921,0,0,0.72265114,552.39489,120.67011)"
         style="font-style:normal;font-variant:normal;font-weight:normal;font-stretch:normal;font-size:64px;line-height:125%;font-family:'Latin Modern Math';-inkscape-font-specification:'Latin Modern Math';text-align:center;letter-spacing:0px;word-spacing:0px;writing-mode:lr-tb;text-anchor:middle;fill:#4d4d4d;fill-opacity:1;stroke:none"
         id="flowRoot6939-2">
        <path
           d="m 179.75619,399.02851 c -15.8381,-5.04692 -26.11059,-15.1561 -29.93864,-38.59417 l -8.38841,-51.35994 c -4.70025,-28.77839 -20.93109,-36.8129 -38.58668,-43.04735 17.13631,-5.93755 34.62022,-14.26491 38.58668,-40.37544 l 8.38841,-55.21935 c 3.56081,-23.44013 13.58126,-32.65661 29.93864,-38.89105 -15.8381,0.29687 -15.23894,2.37503 -21.21069,7.71883 -7.26995,6.8282 -16.28422,18.11981 -19.03371,36.21915 l -8.38841,55.21935 c -3.2453,21.36315 -29.57913,29.39096 -44.897963,35.32851 16.097753,5.93757 40.906253,12.48534 44.897963,36.21915 l 8.38841,49.87555 c 3.44286,20.47041 11.50412,32.06286 18.25478,38.89105 5.71211,5.64068 5.11295,7.71883 21.98962,8.01571"
           style="font-size:300px;font-family:'TeX Gyre Pagella';-inkscape-font-specification:'TeX Gyre Pagella';fill:#4d4d4d;stroke:none"
           id="path7003-9"
           inkscape:connector-curvature="0"
           sodipodi:nodetypes="csscssccsscsscc" />
      </g>
    </g>
    <g
       transform="matrix(0,-0.26458333,-0.29071573,0,186.9305,260.04294)"
       inkscape:label="Layer 1"
       id="layer1-6-3">
      <g
         transform="matrix(-0.20634921,0,0,0.72265114,552.39489,120.67011)"
         style="font-style:normal;font-variant:normal;font-weight:normal;font-stretch:normal;font-size:64px;line-height:125%;font-family:'Latin Modern Math';-inkscape-font-specification:'Latin Modern Math';text-align:center;letter-spacing:0px;word-spacing:0px;writing-mode:lr-tb;text-anchor:middle;fill:#4d4d4d;fill-opacity:1;stroke:none"
         id="flowRoot6939-1">
        <path
           d="m 179.75619,399.02851 c -15.8381,-5.04692 -26.11059,-15.1561 -29.93864,-38.59417 l -8.38841,-51.35994 c -4.70025,-28.77839 -20.93109,-36.8129 -38.58668,-43.04735 17.13631,-5.93755 34.62022,-14.26491 38.58668,-40.37544 l 8.38841,-55.21935 c 3.56081,-23.44013 13.58126,-32.65661 29.93864,-38.89105 -15.8381,0.29687 -15.23894,2.37503 -21.21069,7.71883 -7.26995,6.8282 -16.28422,18.11981 -19.03371,36.21915 l -8.38841,55.21935 c -3.2453,21.36315 -29.57913,29.39096 -44.897963,35.32851 16.097753,5.93757 40.906253,12.48534 44.897963,36.21915 l 8.38841,49.87555 c 3.44286,20.47041 11.50412,32.06286 18.25478,38.89105 5.71211,5.64068 5.11295,7.71883 21.98962,8.01571"
           style="font-size:300px;font-family:'TeX Gyre Pagella';-inkscape-font-specification:'TeX Gyre Pagella';fill:#4d4d4d;stroke:none"
           id="path7003-94"
           inkscape:connector-curvature="0"
           sodipodi:nodetypes="csscssccsscsscc" />
      </g>
    </g>
    <path
       style="fill:none;stroke:#000000;stroke-width:0.52916676;stroke-linecap:butt;stroke-linejoin:miter;stroke-miterlimit:4;stroke-dasharray:none;stroke-opacity:1;marker-end:url(#Arrow1Mend-7)"
       d="m 146.31455,164.56829 c 0,0 -38.36459,7.93751 -33.86667,-16.66874"
       id="path1259-6-4"
       inkscape:connector-curvature="0"
       sodipodi:nodetypes="cc" />
    <path
       style="fill:none;stroke:#000000;stroke-width:0.52916682;stroke-linecap:butt;stroke-linejoin:miter;stroke-miterlimit:4;stroke-dasharray:none;stroke-opacity:1;marker-end:url(#Arrow1Mend-7-0)"
       d="m 147.3729,159.80579 c 0,0 -33.07292,8.46668 -30.69167,-11.90624"
       id="path1259-6-4-3"
       inkscape:connector-curvature="0"
       sodipodi:nodetypes="cc" />
    <text
       xml:space="preserve"
       style="font-style:normal;font-variant:normal;font-weight:normal;font-stretch:normal;font-size:7.05555534px;line-height:1.25;font-family:'Times New Roman';-inkscape-font-specification:'Times New Roman, Normal';font-variant-ligatures:normal;font-variant-caps:normal;font-variant-numeric:normal;font-feature-settings:normal;text-align:start;letter-spacing:0px;word-spacing:0px;writing-mode:lr-tb;text-anchor:start;fill:#000000;fill-opacity:1;stroke:none;stroke-width:0.26458332"
       x="127.26463"
       y="155.44789"
       id="text2462"><tspan
         sodipodi:role="line"
         id="tspan2460"
         x="127.26463"
         y="155.44789"
         style="stroke-width:0.26458332">recall</tspan></text>
  </g>
</svg>
