<?xml version="1.0" encoding="UTF-8" standalone="no"?>
<!-- Created with Inkscape (http://www.inkscape.org/) -->

<svg
   xmlns:ns1="http://wanglongqi.github.io/WriteTeX"
   xmlns:dc="http://purl.org/dc/elements/1.1/"
   xmlns:cc="http://creativecommons.org/ns#"
   xmlns:rdf="http://www.w3.org/1999/02/22-rdf-syntax-ns#"
   xmlns:svg="http://www.w3.org/2000/svg"
   xmlns="http://www.w3.org/2000/svg"
   xmlns:sodipodi="http://sodipodi.sourceforge.net/DTD/sodipodi-0.dtd"
   xmlns:inkscape="http://www.inkscape.org/namespaces/inkscape"
   width="210mm"
   height="297mm"
   viewBox="0 0 210 297"
   version="1.1"
   id="svg8"
   inkscape:version="0.92.5 (0.92.5+69)"
   sodipodi:docname="sheaf.svg"
   inkscape:export-filename="/home/yky/latex/2020/sheaf.png"
   inkscape:export-xdpi="384"
   inkscape:export-ydpi="384">
  <sodipodi:namedview
     id="base"
     pagecolor="#ffffff"
     bordercolor="#666666"
     borderopacity="1.0"
     inkscape:pageopacity="0.0"
     inkscape:pageshadow="2"
     inkscape:zoom="1"
     inkscape:cx="400"
     inkscape:cy="640"
     inkscape:document-units="mm"
     inkscape:current-layer="layer1"
     showgrid="false"
     inkscape:window-width="1920"
     inkscape:window-height="1055"
     inkscape:window-x="0"
     inkscape:window-y="0"
     inkscape:window-maximized="1" />
  <defs
     id="defs2">
    <marker
       inkscape:stockid="Arrow1Lend"
       orient="auto"
       refY="0.0"
       refX="0.0"
       id="Arrow1Lend"
       style="overflow:visible;"
       inkscape:isstock="true">
      <path
         id="path903"
         d="M 0.0,0.0 L 5.0,-5.0 L -12.5,0.0 L 5.0,5.0 L 0.0,0.0 z "
         style="fill-rule:evenodd;stroke:#000000;stroke-width:1pt;stroke-opacity:1;fill:#000000;fill-opacity:1"
         transform="scale(0.8) rotate(180) translate(12.5,0)" />
    </marker>
    <marker
       inkscape:stockid="Arrow1Lend"
       orient="auto"
       refY="0"
       refX="0"
       id="Arrow1Lend-8"
       style="overflow:visible"
       inkscape:isstock="true">
      <path
         inkscape:connector-curvature="0"
         id="path903-2"
         d="M 0,0 5,-5 -12.5,0 5,5 Z"
         style="fill:#000000;fill-opacity:1;fill-rule:evenodd;stroke:#000000;stroke-width:1.00000003pt;stroke-opacity:1"
         transform="matrix(-0.8,0,0,-0.8,-10,0)" />
    </marker>
    <marker
       inkscape:stockid="Arrow1Lend"
       orient="auto"
       refY="0"
       refX="0"
       id="Arrow1Lend-6"
       style="overflow:visible"
       inkscape:isstock="true">
      <path
         inkscape:connector-curvature="0"
         id="path903-5"
         d="M 0,0 5,-5 -12.5,0 5,5 Z"
         style="fill:#000000;fill-opacity:1;fill-rule:evenodd;stroke:#000000;stroke-width:1.00000003pt;stroke-opacity:1"
         transform="matrix(-0.8,0,0,-0.8,-10,0)" />
    </marker>
    <marker
       inkscape:stockid="Arrow1Lend"
       orient="auto"
       refY="0"
       refX="0"
       id="Arrow1Lend-4"
       style="overflow:visible"
       inkscape:isstock="true">
      <path
         inkscape:connector-curvature="0"
         id="path903-7"
         d="M 0,0 5,-5 -12.5,0 5,5 Z"
         style="fill:#000000;fill-opacity:1;fill-rule:evenodd;stroke:#000000;stroke-width:1.00000003pt;stroke-opacity:1"
         transform="matrix(-0.8,0,0,-0.8,-10,0)" />
    </marker>
    <marker
       inkscape:stockid="Arrow1Lend"
       orient="auto"
       refY="0"
       refX="0"
       id="Arrow1Lend-1"
       style="overflow:visible"
       inkscape:isstock="true">
      <path
         inkscape:connector-curvature="0"
         id="path903-4"
         d="M 0,0 5,-5 -12.5,0 5,5 Z"
         style="fill:#000000;fill-opacity:1;fill-rule:evenodd;stroke:#000000;stroke-width:1.00000003pt;stroke-opacity:1"
         transform="matrix(-0.8,0,0,-0.8,-10,0)" />
    </marker>
  </defs>
  <metadata
     id="metadata5">
    <rdf:RDF>
      <cc:Work
         rdf:about="">
        <dc:format>image/svg+xml</dc:format>
        <dc:type
           rdf:resource="http://purl.org/dc/dcmitype/StillImage" />
        <dc:title />
      </cc:Work>
    </rdf:RDF>
  </metadata>
  <g
     inkscape:label="Layer 1"
     inkscape:groupmode="layer"
     id="layer1">
    <ellipse
       style="opacity:1;vector-effect:none;fill:none;fill-opacity:1;stroke:#000000;stroke-width:0.26458332;stroke-linecap:butt;stroke-linejoin:miter;stroke-miterlimit:4;stroke-dasharray:1.5874999, 1.5874999;stroke-dashoffset:0;stroke-opacity:0.98431373;paint-order:markers fill stroke"
       id="path10"
       cx="91.413536"
       cy="172.38126"
       rx="27.913542"
       ry="15.874999" />
    <ellipse
       style="opacity:1;vector-effect:none;fill:none;fill-opacity:1;stroke:#000000;stroke-width:0.26458332;stroke-linecap:butt;stroke-linejoin:miter;stroke-miterlimit:4;stroke-dasharray:1.58749992, 1.58749992;stroke-dashoffset:0;stroke-opacity:0.98431373;paint-order:markers fill stroke"
       id="path10-3"
       cx="126.20625"
       cy="170"
       rx="16.271875"
       ry="9.5249996" />
    <ellipse
       style="opacity:1;vector-effect:none;fill:none;fill-opacity:1;stroke:#000000;stroke-width:0.26458332;stroke-linecap:butt;stroke-linejoin:miter;stroke-miterlimit:4;stroke-dasharray:1.58749992, 1.58749992;stroke-dashoffset:0;stroke-opacity:0.98431373;paint-order:markers fill stroke"
       id="path10-6"
       cx="80.168747"
       cy="172.38126"
       rx="9.3927088"
       ry="5.5562496" />
    <ellipse
       style="opacity:1;vector-effect:none;fill:none;fill-opacity:1;stroke:#000000;stroke-width:0.26458332;stroke-linecap:butt;stroke-linejoin:miter;stroke-miterlimit:4;stroke-dasharray:1.58749994, 1.58749994;stroke-dashoffset:0;stroke-opacity:0.98431373;paint-order:markers fill stroke"
       id="path10-6-7"
       cx="100.54166"
       cy="177.93752"
       rx="7.8052082"
       ry="5.5562496" />
    <text
       xml:space="preserve"
       style="font-style:normal;font-variant:normal;font-weight:normal;font-stretch:normal;font-size:7.05555534px;line-height:1.25;font-family:'Latin Modern Math';-inkscape-font-specification:'Latin Modern Math';font-variant-ligatures:normal;font-variant-caps:normal;font-variant-numeric:normal;font-feature-settings:normal;text-align:start;letter-spacing:0px;word-spacing:0px;writing-mode:lr-tb;text-anchor:start;fill:#808080;fill-opacity:1;stroke:none;stroke-width:0.26458332;"
       x="24.341663"
       y="180.31866"
       id="text874"><tspan
         sodipodi:role="line"
         id="tspan872"
         x="24.341663"
         y="180.31866"
         style="font-style:normal;font-variant:normal;font-weight:normal;font-stretch:normal;font-family:'Latin Modern Math';-inkscape-font-specification:'Latin Modern Math';stroke-width:0.26458332;fill:#808080;">open sets</tspan></text>
    <text
       xml:space="preserve"
       style="font-style:normal;font-variant:normal;font-weight:normal;font-stretch:normal;font-size:7.05555534px;line-height:1.25;font-family:'Latin Modern Math';-inkscape-font-specification:'Latin Modern Math, Normal';font-variant-ligatures:normal;font-variant-caps:normal;font-variant-numeric:normal;font-feature-settings:normal;text-align:start;letter-spacing:0px;word-spacing:0px;writing-mode:lr-tb;text-anchor:start;fill:#000000;fill-opacity:1;stroke:none;stroke-width:0.26458332"
       x="87.3125"
       y="130.04791"
       id="text878"><tspan
         sodipodi:role="line"
         id="tspan876"
         x="87.3125"
         y="130.04791"
         style="stroke-width:0.26458332">{}</tspan></text>
    <text
       xml:space="preserve"
       style="font-style:normal;font-variant:normal;font-weight:normal;font-stretch:normal;font-size:7.05555534px;line-height:1.25;font-family:'Latin Modern Math';-inkscape-font-specification:'Latin Modern Math, Normal';font-variant-ligatures:normal;font-variant-caps:normal;font-variant-numeric:normal;font-feature-settings:normal;text-align:start;letter-spacing:0px;word-spacing:0px;writing-mode:lr-tb;text-anchor:start;fill:#000000;fill-opacity:1;stroke:none;stroke-width:0.26458332"
       x="97.366661"
       y="144.86458"
       id="text882"><tspan
         sodipodi:role="line"
         id="tspan880"
         x="97.366661"
         y="144.86458"
         style="stroke-width:0.26458332">{}</tspan></text>
    <text
       xml:space="preserve"
       style="font-style:normal;font-variant:normal;font-weight:normal;font-stretch:normal;font-size:7.05555534px;line-height:1.25;font-family:'Latin Modern Math';-inkscape-font-specification:'Latin Modern Math, Normal';font-variant-ligatures:normal;font-variant-caps:normal;font-variant-numeric:normal;font-feature-settings:normal;text-align:start;letter-spacing:0px;word-spacing:0px;writing-mode:lr-tb;text-anchor:start;fill:#000000;fill-opacity:1;stroke:none;stroke-width:0.26458332"
       x="76.199997"
       y="138.51459"
       id="text886"><tspan
         sodipodi:role="line"
         id="tspan884"
         x="76.199997"
         y="138.51459"
         style="stroke-width:0.26458332">{}</tspan></text>
    <text
       xml:space="preserve"
       style="font-style:normal;font-variant:normal;font-weight:normal;font-stretch:normal;font-size:7.05555534px;line-height:1.25;font-family:'Latin Modern Math';-inkscape-font-specification:'Latin Modern Math, Normal';font-variant-ligatures:normal;font-variant-caps:normal;font-variant-numeric:normal;font-feature-settings:normal;text-align:start;letter-spacing:0px;word-spacing:0px;writing-mode:lr-tb;text-anchor:start;fill:#000000;fill-opacity:1;stroke:none;stroke-width:0.26458332"
       x="124.08958"
       y="136.39789"
       id="text890"><tspan
         sodipodi:role="line"
         id="tspan888"
         x="124.08958"
         y="136.39789"
         style="stroke-width:0.26458332">{}</tspan></text>
    <text
       xml:space="preserve"
       style="font-style:normal;font-variant:normal;font-weight:normal;font-stretch:normal;font-size:7.05555534px;line-height:1.25;font-family:'Latin Modern Math';-inkscape-font-specification:'Latin Modern Math, Normal';font-variant-ligatures:normal;font-variant-caps:normal;font-variant-numeric:normal;font-feature-settings:normal;text-align:start;letter-spacing:0px;word-spacing:0px;writing-mode:lr-tb;text-anchor:start;fill:#808080;fill-opacity:1;stroke:none;stroke-width:0.26458332;"
       x="39.203976"
       y="134.2812"
       id="text894"><tspan
         sodipodi:role="line"
         x="39.203976"
         y="134.2812"
         style="text-align:center;text-anchor:middle;stroke-width:0.26458332;fill:#808080;"
         id="tspan896">sets of functions</tspan></text>
    <path
       style="fill:none;stroke:#000000;stroke-width:0.26458332px;stroke-linecap:butt;stroke-linejoin:miter;stroke-opacity:1;marker-end:url(#Arrow1Lend)"
       d="M 79.639581,171.5875 V 144.07083"
       id="path898"
       inkscape:connector-curvature="0" />
    <path
       style="fill:none;stroke:#000000;stroke-width:0.26458332px;stroke-linecap:butt;stroke-linejoin:miter;stroke-opacity:1;marker-end:url(#Arrow1Lend-8)"
       d="M 101.07083,177.92974 V 150.41307"
       id="path898-4"
       inkscape:connector-curvature="0" />
    <path
       style="fill:none;stroke:#000000;stroke-width:0.26458332px;stroke-linecap:butt;stroke-linejoin:miter;stroke-opacity:1;marker-end:url(#Arrow1Lend-6)"
       d="M 90.4875,162.8485 V 135.33183"
       id="path898-3"
       inkscape:connector-curvature="0" />
    <path
       style="fill:none;stroke:#000000;stroke-width:0.26458332px;stroke-linecap:butt;stroke-linejoin:miter;stroke-opacity:1;marker-end:url(#Arrow1Lend-4)"
       d="M 127.52916,169.72766 V 142.21099"
       id="path898-47"
       inkscape:connector-curvature="0" />
    <g
       transform="matrix(0.5,0,0,0.5,-8.7719167,121.71979)"
       id="g1772">
      <g
         style="font-style:normal;font-variant:normal;font-weight:normal;font-stretch:normal;letter-spacing:normal;word-spacing:normal;text-anchor:start;fill:none;fill-opacity:1;fill-rule:evenodd;stroke:#000000;stroke-linecap:butt;stroke-linejoin:miter;stroke-miterlimit:10.43299961;stroke-dasharray:none;stroke-dashoffset:0;stroke-opacity:1"
         id="content"
         transform="matrix(0.3,0,0,-0.3,-52.5,222.75)"
         xml:space="preserve"
         stroke-miterlimit="10.433"
         font-style="normal"
         font-variant="normal"
         font-weight="normal"
         font-stretch="normal"
         font-size-adjust="none"
         letter-spacing="normal"
         word-spacing="normal"><path
           style="fill:#000000;stroke-width:0"
           inkscape:connector-curvature="0"
           d="m 480.24,414.03 v 0.01 0.01 0.02 0.01 l -0.01,0.01 v 0.01 0.02 0.01 l -0.01,0.01 v 0.01 l -0.01,0.02 -0.01,0.02 v 0.02 l -0.02,0.01 -0.01,0.02 -0.01,0.01 -0.01,0.02 -0.02,0.01 -0.01,0.01 -0.02,0.01 -0.02,0.01 -0.02,0.01 -0.01,0.01 h -0.02 l -0.02,0.01 -0.02,0.01 h -0.03 l -0.02,0.01 h -0.02 -0.02 -0.02 l -0.03,0.01 h -0.02 -0.02 -0.03 -0.04 c -0.86,0 -2.05,-0.75 -2.1,-0.75 -1,-0.64 -1.2,-1 -1.79,-1.84 -1.55,-2.35 -3.74,-4.03 -6.97,-4.03 -4.49,0 -8.53,3.23 -8.53,10.7 0,4.48 1.79,10.42 4.44,14.36 2.18,3.19 4.89,5.78 10.01,5.78 1.89,0 3.09,-0.7 3.09,-2.55 0,-1.75 -1.84,-5.28 -2.45,-6.28 -0.3,-0.55 -0.3,-0.64 -0.3,-0.75 0,-0.34 0.25,-0.34 0.55,-0.34 1,0 2.85,1.09 3.44,1.89 0.11,0.2 3,5.08 3,7.62 0,2.74 -2.25,3.14 -4.05,3.14 -7.22,0 -13.14,-4.73 -15.44,-7.53 -5.92,-7.17 -6.53,-14.89 -6.53,-17.48 0,-7.27 3.69,-11.31 9.47,-11.31 8.02,0 14.66,7.78 14.66,9.03 z"
           id="path1765" /><path
           style="fill:#000000;stroke-width:0"
           inkscape:connector-curvature="0"
           d="m 503.12,431.62 -0.01,0.41 -0.04,0.4 -0.05,0.4 -0.07,0.39 -0.1,0.39 -0.11,0.38 -0.13,0.37 -0.15,0.37 -0.17,0.36 -0.19,0.35 -0.2,0.34 -0.22,0.33 -0.23,0.32 -0.25,0.31 -0.27,0.29 -0.28,0.29 -0.3,0.27 -0.3,0.26 -0.33,0.24 -0.33,0.23 -0.35,0.22 -0.35,0.2 -0.37,0.18 -0.38,0.17 -0.39,0.15 -0.4,0.13 -0.41,0.11 -0.42,0.1 -0.43,0.07 -0.43,0.05 -0.44,0.04 -0.45,0.01 v -0.99 c 2.06,0 3.53,-0.97 4.3,-2.05 0.97,-1.35 1.08,-3.1 1.08,-4.78 0,-1.67 -0.11,-3.51 -1.13,-4.95 -0.94,-1.31 -2.53,-2.02 -4.25,-2.02 v 0 c -1.28,0 -3.17,0.43 -4.31,2.13 -0.94,1.44 -1.05,3.23 -1.05,4.84 0,1.5 0.03,3.57 1.25,5.05 0.88,1.02 2.34,1.78 4.11,1.78 v 0.99 c -4.8,0 -8.53,-3.77 -8.53,-8.13 0,-4.33 3.83,-7.76 8.53,-7.76 4.7,0 8.55,3.43 8.55,7.76 z"
           id="path1767" /><path
           style="fill:#000000;stroke-width:0"
           inkscape:connector-curvature="0"
           d="m 514.16,418.7 h -0.1 -0.1 -0.1 -0.1 -0.09 -0.09 -0.09 -0.09 -0.08 -0.08 l -0.08,0.01 h -0.08 -0.07 -0.07 l -0.07,0.01 h -0.07 l -0.06,0.01 h -0.07 l -0.12,0.01 -0.11,0.02 -0.1,0.02 -0.09,0.02 -0.09,0.02 -0.08,0.03 -0.07,0.04 -0.07,0.03 -0.06,0.05 -0.05,0.04 -0.05,0.06 -0.04,0.05 -0.04,0.07 -0.03,0.07 -0.03,0.07 -0.02,0.08 -0.02,0.09 -0.01,0.1 -0.02,0.1 v 0.12 l -0.01,0.11 v 0.13 l -0.01,0.14 v 5.67 c 0.18,-0.17 1.82,-2.01 4.74,-2.01 l -0.2,0.96 c -3.08,0 -4.44,2.69 -4.54,2.89 v 8.1 c 1.05,1.73 3.07,2.64 4.91,2.64 2.92,0 5.19,-3.06 5.19,-6.72 0,-3.98 -2.61,-6.91 -5.56,-6.91 l 0.2,-0.96 c 4.59,0 8.53,3.43 8.53,7.87 0,4.28 -3.55,7.83 -7.97,7.83 -1.98,0 -4.01,-0.72 -5.44,-2.13 v 2.13 l -5.23,-0.38 v -1.25 c 2.44,0 2.62,-0.18 2.62,-1.64 V 420.2 c 0,-1.5 -0.35,-1.5 -2.62,-1.5 v -1.27 c 0.08,0 2.52,0.14 3.97,0.14 1.3,0 3.7,-0.09 4.01,-0.14 z"
           id="path1769" /></g>    </g>
    <g
       id="g1858"
       transform="matrix(0.5,0,0,0.5,-8.7856666,93.919744)">
      <g
         word-spacing="normal"
         letter-spacing="normal"
         font-size-adjust="none"
         font-stretch="normal"
         font-weight="normal"
         font-variant="normal"
         font-style="normal"
         stroke-miterlimit="10.433"
         xml:space="preserve"
         transform="matrix(0.3,0,0,-0.3,-52.5,222.75)"
         id="g1856"
         style="font-style:normal;font-variant:normal;font-weight:normal;font-stretch:normal;letter-spacing:normal;word-spacing:normal;text-anchor:start;fill:none;fill-opacity:1;fill-rule:evenodd;stroke:#000000;stroke-linecap:butt;stroke-linejoin:miter;stroke-miterlimit:10.43299961;stroke-dasharray:none;stroke-dashoffset:0;stroke-opacity:1"><path
           id="path1850"
           d="m 475.55,426.82 -7.23,1.55 c -1.99,0.45 -4.78,2.14 -4.78,5.19 0,2.14 1.4,5.22 6.37,5.22 4,0 9.03,-1.69 10.17,-8.47 0.21,-1.19 0.21,-1.3 1.25,-1.3 1.19,0 1.19,0.25 1.19,1.41 v 9.11 c 0,0.95 0,1.39 -0.89,1.39 -0.41,0 -0.45,-0.05 -1,-0.55 l -2.24,-2.19 c -2.89,2.3 -6.14,2.74 -8.53,2.74 -7.56,0 -11.15,-4.78 -11.15,-10 0,-3.25 1.64,-5.53 2.68,-6.64 2.44,-2.44 4.15,-2.78 9.57,-3.99 4.39,-0.93 5.23,-1.09 6.33,-2.14 0.75,-0.75 2,-2.03 2,-4.33 0,-2.39 -1.3,-5.82 -6.49,-5.82 -3.78,0 -11.36,1 -11.75,8.42 -0.05,0.89 -0.05,1.14 -1.14,1.14 -1.2,0 -1.2,-0.3 -1.2,-1.44 v -9.08 c 0,-0.93 0,-1.39 0.89,-1.39 0.45,0 0.56,0.1 0.95,0.46 l 2.3,2.28 c 3.28,-2.44 7.92,-2.74 9.95,-2.74 8.24,0 11.31,5.63 11.31,10.66 0,5.53 -4.03,9.56 -8.56,10.51 z"
           inkscape:connector-curvature="0"
           style="fill:#000000;stroke-width:0" /><path
           id="path1852"
           d="m 510.33,417.06 h 0.1 0.1 0.09 0.09 0.09 l 0.09,0.01 h 0.08 l 0.07,0.01 0.08,0.01 0.07,0.01 0.06,0.01 0.07,0.02 0.06,0.02 0.05,0.02 0.06,0.03 0.05,0.03 0.05,0.03 0.04,0.04 0.04,0.04 0.04,0.05 0.03,0.05 0.04,0.06 0.01,0.03 0.02,0.03 0.01,0.03 0.01,0.04 0.01,0.03 0.01,0.04 0.01,0.04 0.01,0.04 0.01,0.04 0.01,0.05 0.01,0.04 v 0.05 l 0.01,0.05 v 0.05 l 0.01,0.05 v 0.06 0.05 0.06 l 0.01,0.06 v 0.06 c 0,1.55 -0.3,5.19 -2.79,7.67 -1.84,1.8 -4.48,2.69 -7.92,2.69 -7.98,0 -12.31,-5.12 -12.31,-11.36 0,-6.67 4.98,-11.5 13,-11.5 7.88,0 10.02,5.28 10.02,6.13 0,0.89 -0.94,0.89 -1.19,0.89 -0.86,0 -0.95,-0.24 -1.25,-1.05 -1.05,-2.39 -3.89,-3.98 -7.13,-3.98 -7.03,0 -7.07,6.62 -7.07,9.17 v 1.64 c 0.1,1.95 0.15,4.05 1.2,5.69 1.3,1.98 3.28,2.59 4.73,2.59 5.83,0 5.92,-6.53 5.97,-8.28 h -11.9 v -1.64 z"
           inkscape:connector-curvature="0"
           style="fill:#000000;stroke-width:0" /><path
           id="path1854"
           d="m 518.72,425.98 v -13.66 c 0,-5.32 4.34,-6.42 7.87,-6.42 3.8,0 6.03,2.85 6.03,6.47 v 2.64 h -2.34 v -2.53 c 0,-3.39 -1.59,-4.59 -2.98,-4.59 -2.89,0 -2.89,3.18 -2.89,4.34 v 13.75 h 7.26 v 2.34 h -7.26 v 9.52 h -2.35 c -0.04,-4.98 -2.48,-9.92 -7.42,-10.06 v -1.8 z"
           inkscape:connector-curvature="0"
           style="fill:#000000;stroke-width:0" /></g>    </g>
    <path
       style="fill:none;stroke:#000000;stroke-width:0.26458332px;stroke-linecap:butt;stroke-linejoin:miter;stroke-opacity:1;marker-end:url(#Arrow1Lend-1)"
       d="M 38.89375,163.37769 V 148.03185"
       id="path898-0"
       inkscape:connector-curvature="0"
       sodipodi:nodetypes="cc" />
    <g
       id="g44"
       transform="matrix(0.75,0,0,0.75,-385.88325,11.720104)"
       ns1:text="$$\\{ * \\}$$"
       inkscape:export-xdpi="384"
       inkscape:export-ydpi="384">
      <g
         id="surface1">
        <g
           id="g41"
           style="fill:#000000;fill-opacity:1">
          <path
             id="path35"
             transform="translate(587.804,110.99)"
             d="m 2.828125,-6.15625 c 0,-0.390625 0.25,-1.03125 1.34375,-1.09375 C 4.21875,-7.265625 4.25,-7.3125 4.25,-7.359375 c 0,-0.125 -0.078125,-0.125 -0.1875,-0.125 -0.984375,0 -1.90625,0.515625 -1.90625,1.25 v 2.28125 c 0,0.390625 0,0.703125 -0.40625,1.03125 -0.34375,0.296875 -0.71875,0.3125 -0.9375,0.3125 C 0.75,-2.59375 0.71875,-2.546875 0.71875,-2.5 c 0,0.109375 0.0625,0.109375 0.15625,0.125 0.65625,0.03125 1.140625,0.390625 1.25,0.875 0.03125,0.109375 0.03125,0.140625 0.03125,0.5 v 1.96875 c 0,0.421875 0,0.734375 0.46875,1.109375 C 3.015625,2.375 3.671875,2.5 4.0625,2.5 4.171875,2.5 4.25,2.5 4.25,2.375 4.25,2.28125 4.203125,2.28125 4.09375,2.265625 3.46875,2.234375 2.984375,1.90625 2.84375,1.40625 2.828125,1.3125 2.828125,1.296875 2.828125,0.9375 v -2.09375 c 0,-0.453125 -0.09375,-0.625 -0.40625,-0.953125 C 2.21875,-2.3125 1.921875,-2.40625 1.640625,-2.5 c 0.828125,-0.21875 1.1875,-0.6875 1.1875,-1.265625 z m 0,0"
             style="stroke:none"
             inkscape:connector-curvature="0" />
          <path
             id="path37"
             transform="translate(592.7853,110.99)"
             d="M 2.734375,-4.25 C 2.75,-4.390625 2.75,-4.640625 2.5,-4.640625 2.328125,-4.640625 2.203125,-4.5 2.234375,-4.375 V -4.25 L 2.375,-2.703125 1.09375,-3.625 C 1,-3.671875 0.984375,-3.703125 0.921875,-3.703125 c -0.140625,0 -0.28125,0.140625 -0.28125,0.28125 0,0.15625 0.109375,0.203125 0.203125,0.25 L 2.265625,-2.5 l -1.375,0.671875 c -0.15625,0.078125 -0.25,0.125 -0.25,0.265625 0,0.15625 0.140625,0.28125 0.28125,0.28125 0.0625,0 0.078125,0 0.328125,-0.1875 L 2.375,-2.265625 2.21875,-0.59375 c 0,0.203125 0.1875,0.25 0.265625,0.25 0.125,0 0.265625,-0.0625 0.265625,-0.25 L 2.609375,-2.265625 3.875,-1.34375 c 0.09375,0.046875 0.109375,0.0625 0.1875,0.0625 0.140625,0 0.265625,-0.140625 0.265625,-0.28125 0,-0.140625 -0.09375,-0.1875 -0.21875,-0.25 C 3.515625,-2.109375 3.5,-2.109375 2.71875,-2.484375 l 1.375,-0.671875 C 4.25,-3.234375 4.328125,-3.265625 4.328125,-3.421875 c 0,-0.140625 -0.125,-0.28125 -0.265625,-0.28125 -0.078125,0 -0.09375,0 -0.34375,0.1875 l -1.109375,0.8125 z m 0,0"
             style="stroke:none"
             inkscape:connector-curvature="0" />
          <path
             id="path39"
             transform="translate(597.7666,110.99)"
             d="m 2.15625,1.171875 c 0,0.390625 -0.265625,1.03125 -1.34375,1.09375 C 0.75,2.28125 0.71875,2.328125 0.71875,2.375 0.71875,2.5 0.828125,2.5 0.921875,2.5 1.890625,2.5 2.8125,2 2.828125,1.25 v -2.28125 c 0,-0.390625 0,-0.703125 0.390625,-1.03125 C 3.5625,-2.359375 3.953125,-2.375 4.171875,-2.375 4.21875,-2.390625 4.25,-2.4375 4.25,-2.5 4.25,-2.59375 4.203125,-2.59375 4.09375,-2.609375 3.4375,-2.640625 2.953125,-3 2.84375,-3.484375 2.828125,-3.59375 2.828125,-3.625 2.828125,-3.984375 v -1.96875 c 0,-0.421875 0,-0.734375 -0.484375,-1.109375 C 1.9375,-7.375 1.25,-7.484375 0.921875,-7.484375 c -0.09375,0 -0.203125,0 -0.203125,0.125 0,0.09375 0.0625,0.09375 0.15625,0.109375 0.625,0.03125 1.125,0.359375 1.25,0.859375 0.03125,0.09375 0.03125,0.109375 0.03125,0.46875 v 2.09375 c 0,0.453125 0.078125,0.625 0.390625,0.953125 0.21875,0.203125 0.5,0.296875 0.78125,0.375 -0.8125,0.234375 -1.171875,0.703125 -1.171875,1.28125 z m 0,0"
             style="stroke:none"
             inkscape:connector-curvature="0" />
        </g>
      </g>
    </g>
    <ellipse
       style="opacity:1;fill:none;fill-opacity:1;stroke:#000000;stroke-width:0.59531248;stroke-linecap:round;stroke-linejoin:round;stroke-miterlimit:4;stroke-dasharray:none;stroke-opacity:1;paint-order:markers fill stroke"
       id="path54"
       cx="60.854168"
       cy="65.39547"
       rx="20.637501"
       ry="8.7312508"
       inkscape:export-xdpi="384"
       inkscape:export-ydpi="384" />
    <path
       style="fill:none;stroke:#000000;stroke-width:0.59531248;stroke-linecap:butt;stroke-linejoin:miter;stroke-miterlimit:4;stroke-dasharray:none;stroke-opacity:1"
       d="M 60.91512,74.046982 V 87.739169"
       id="path56"
       inkscape:connector-curvature="0"
       sodipodi:nodetypes="cc"
       inkscape:export-xdpi="384"
       inkscape:export-ydpi="384" />
    <g
       id="g4863"
       transform="matrix(0.75,0,0,0.75,-385.07033,-15.664271)"
       ns1:text="$$\\mathbf{Set} \\ \\mathrm{topos}$$"
       inkscape:export-xdpi="384"
       inkscape:export-ydpi="384">
      <g
         id="g4861">
        <g
           id="g4845"
           style="fill:#000000;fill-opacity:1">
          <path
             id="path4839"
             transform="translate(573.792,110.99)"
             d="M 4,-4.125 2.5625,-4.4375 C 2.15625,-4.53125 1.609375,-4.859375 1.609375,-5.46875 c 0,-0.4375 0.28125,-1.046875 1.265625,-1.046875 0.796875,0 1.8125,0.328125 2.046875,1.6875 0.03125,0.25 0.03125,0.265625 0.234375,0.265625 0.25,0 0.25,-0.046875 0.25,-0.28125 v -1.828125 c 0,-0.1875 0,-0.28125 -0.1875,-0.28125 -0.078125,0 -0.078125,0.015625 -0.1875,0.109375 l -0.453125,0.4375 C 4,-6.859375 3.34375,-6.953125 2.875,-6.953125 c -1.515625,0 -2.234375,0.96875 -2.234375,2.015625 0,0.640625 0.328125,1.09375 0.53125,1.3125 0.5,0.5 0.828125,0.5625 1.921875,0.796875 0.875,0.203125 1.046875,0.21875 1.265625,0.4375 C 4.5,-2.25 4.75,-1.984375 4.75,-1.53125 c 0,0.484375 -0.25,1.171875 -1.296875,1.171875 -0.75,0 -2.265625,-0.203125 -2.34375,-1.6875 C 1.09375,-2.21875 1.09375,-2.265625 0.875,-2.265625 c -0.234375,0 -0.234375,0.046875 -0.234375,0.28125 v 1.8125 c 0,0.1875 0,0.28125 0.171875,0.28125 0.09375,0 0.109375,-0.015625 0.1875,-0.09375 L 1.46875,-0.4375 c 0.65625,0.484375 1.578125,0.546875 1.984375,0.546875 1.65625,0 2.265625,-1.125 2.265625,-2.140625 C 5.71875,-3.125 4.921875,-3.9375 4,-4.125 Z m 0,0"
             style="stroke:none"
             inkscape:connector-curvature="0" />
          <path
             id="path4841"
             transform="translate(580.1571,110.99)"
             d="m 4.609375,-2.171875 c 0.21875,0 0.3125,0 0.3125,-0.265625 0,-0.3125 -0.0625,-1.046875 -0.5625,-1.546875 C 4,-4.34375 3.46875,-4.515625 2.78125,-4.515625 c -1.59375,0 -2.46875,1.03125 -2.46875,2.265625 0,1.34375 1,2.3125 2.609375,2.3125 1.578125,0 2,-1.0625 2,-1.234375 0,-0.171875 -0.1875,-0.171875 -0.234375,-0.171875 -0.171875,0 -0.1875,0.046875 -0.25,0.203125 -0.203125,0.484375 -0.78125,0.796875 -1.421875,0.796875 -1.40625,0 -1.421875,-1.328125 -1.421875,-1.828125 z M 1.59375,-2.5 C 1.609375,-2.890625 1.625,-3.3125 1.828125,-3.640625 2.09375,-4.03125 2.5,-4.15625 2.78125,-4.15625 c 1.171875,0 1.1875,1.3125 1.203125,1.65625 z m 0,0"
             style="stroke:none"
             inkscape:connector-curvature="0" />
          <path
             id="path4843"
             transform="translate(585.40839,110.99)"
             d="m 1.03125,-3.953125 v 2.734375 c 0,1.0625 0.859375,1.28125 1.578125,1.28125 0.75,0 1.203125,-0.578125 1.203125,-1.296875 v -0.53125 H 3.34375 V -1.25 c 0,0.671875 -0.328125,0.90625 -0.609375,0.90625 -0.578125,0 -0.578125,-0.640625 -0.578125,-0.859375 v -2.75 H 3.625 v -0.46875 H 2.15625 v -1.90625 H 1.6875 c 0,1 -0.484375,1.984375 -1.484375,2.015625 v 0.359375 z m 0,0"
             style="stroke:none"
             inkscape:connector-curvature="0" />
        </g>
        <g
           id="g4853"
           style="fill:#000000;fill-opacity:1">
          <path
             id="path4847"
             transform="translate(593.181,110.99)"
             d="m 1.71875,-3.984375 h 1.4375 v -0.3125 H 1.71875 V -6.125 h -0.25 c 0,0.8125 -0.296875,1.875 -1.28125,1.921875 v 0.21875 h 0.84375 v 2.75 c 0,1.21875 0.9375,1.34375 1.296875,1.34375 0.703125,0 0.984375,-0.703125 0.984375,-1.34375 v -0.5625 h -0.25 V -1.25 c 0,0.734375 -0.296875,1.109375 -0.671875,1.109375 -0.671875,0 -0.671875,-0.90625 -0.671875,-1.078125 z m 0,0"
             style="stroke:none"
             inkscape:connector-curvature="0" />
          <path
             id="path4849"
             transform="translate(597.05546,110.99)"
             d="M 4.6875,-2.140625 C 4.6875,-3.40625 3.703125,-4.46875 2.5,-4.46875 c -1.25,0 -2.21875,1.09375 -2.21875,2.328125 0,1.296875 1.03125,2.25 2.203125,2.25 1.203125,0 2.203125,-0.984375 2.203125,-2.25 z m -2.1875,2 c -0.4375,0 -0.875,-0.203125 -1.140625,-0.671875 -0.25,-0.4375 -0.25,-1.046875 -0.25,-1.40625 0,-0.390625 0,-0.921875 0.234375,-1.359375 C 1.609375,-4.03125 2.078125,-4.25 2.484375,-4.25 c 0.4375,0 0.859375,0.21875 1.125,0.65625 0.265625,0.421875 0.265625,1 0.265625,1.375 0,0.359375 0,0.90625 -0.21875,1.34375 C 3.421875,-0.421875 2.984375,-0.140625 2.5,-0.140625 Z m 0,0"
             style="stroke:none"
             inkscape:connector-curvature="0" />
          <path
             id="path4851"
             transform="translate(602.03675,110.99)"
             d="m 1.71875,-3.75 v -0.65625 l -1.4375,0.109375 v 0.3125 c 0.703125,0 0.78125,0.0625 0.78125,0.5 v 4.65625 C 1.0625,1.625 0.953125,1.625 0.28125,1.625 V 1.9375 C 0.625,1.921875 1.140625,1.90625 1.390625,1.90625 c 0.28125,0 0.78125,0.015625 1.125,0.03125 V 1.625 C 1.859375,1.625 1.75,1.625 1.75,1.171875 V -0.59375 c 0.046875,0.171875 0.46875,0.703125 1.21875,0.703125 1.1875,0 2.21875,-0.984375 2.21875,-2.265625 0,-1.265625 -0.953125,-2.25 -2.078125,-2.25 -0.78125,0 -1.203125,0.4375 -1.390625,0.65625 z M 1.75,-1.140625 v -2.21875 C 2.03125,-3.875 2.515625,-4.15625 3.03125,-4.15625 c 0.734375,0 1.328125,0.875 1.328125,2 0,1.203125 -0.6875,2.046875 -1.421875,2.046875 -0.40625,0 -0.78125,-0.203125 -1.046875,-0.609375 C 1.75,-0.921875 1.75,-0.9375 1.75,-1.140625 Z m 0,0"
             style="stroke:none"
             inkscape:connector-curvature="0" />
        </g>
        <g
           id="g4859"
           style="fill:#000000;fill-opacity:1">
          <path
             id="path4855"
             transform="translate(607.84097,110.99)"
             d="M 4.6875,-2.140625 C 4.6875,-3.40625 3.703125,-4.46875 2.5,-4.46875 c -1.25,0 -2.21875,1.09375 -2.21875,2.328125 0,1.296875 1.03125,2.25 2.203125,2.25 1.203125,0 2.203125,-0.984375 2.203125,-2.25 z m -2.1875,2 c -0.4375,0 -0.875,-0.203125 -1.140625,-0.671875 -0.25,-0.4375 -0.25,-1.046875 -0.25,-1.40625 0,-0.390625 0,-0.921875 0.234375,-1.359375 C 1.609375,-4.03125 2.078125,-4.25 2.484375,-4.25 c 0.4375,0 0.859375,0.21875 1.125,0.65625 0.265625,0.421875 0.265625,1 0.265625,1.375 0,0.359375 0,0.90625 -0.21875,1.34375 C 3.421875,-0.421875 2.984375,-0.140625 2.5,-0.140625 Z m 0,0"
             style="stroke:none"
             inkscape:connector-curvature="0" />
          <path
             id="path4857"
             transform="translate(612.82227,110.99)"
             d="m 2.078125,-1.9375 c 0.21875,0.046875 1.03125,0.203125 1.03125,0.921875 0,0.5 -0.34375,0.90625 -1.125,0.90625 -0.84375,0 -1.203125,-0.5625 -1.390625,-1.421875 C 0.5625,-1.65625 0.5625,-1.6875 0.453125,-1.6875 c -0.125,0 -0.125,0.0625 -0.125,0.234375 V -0.125 c 0,0.171875 0,0.234375 0.109375,0.234375 0.046875,0 0.0625,-0.015625 0.25,-0.203125 0.015625,-0.015625 0.015625,-0.03125 0.203125,-0.21875 0.4375,0.40625 0.890625,0.421875 1.09375,0.421875 1.140625,0 1.609375,-0.671875 1.609375,-1.390625 0,-0.515625 -0.296875,-0.828125 -0.421875,-0.9375 C 2.84375,-2.546875 2.453125,-2.625 2.03125,-2.703125 1.46875,-2.8125 0.8125,-2.9375 0.8125,-3.515625 c 0,-0.359375 0.25,-0.765625 1.109375,-0.765625 1.09375,0 1.15625,0.90625 1.171875,1.203125 0,0.09375 0.09375,0.09375 0.109375,0.09375 0.140625,0 0.140625,-0.046875 0.140625,-0.234375 v -1.015625 c 0,-0.15625 0,-0.234375 -0.109375,-0.234375 -0.046875,0 -0.078125,0 -0.203125,0.125 -0.03125,0.03125 -0.125,0.125 -0.171875,0.15625 -0.375,-0.28125 -0.78125,-0.28125 -0.9375,-0.28125 -1.21875,0 -1.59375,0.671875 -1.59375,1.234375 0,0.34375 0.15625,0.625 0.421875,0.84375 0.328125,0.25 0.609375,0.3125 1.328125,0.453125 z m 0,0"
             style="stroke:none"
             inkscape:connector-curvature="0" />
        </g>
      </g>
    </g>
  </g>
</svg>
