<?xml version="1.0" encoding="UTF-8" standalone="no"?>
<!-- Created with Inkscape (http://www.inkscape.org/) -->

<svg
   xmlns:dc="http://purl.org/dc/elements/1.1/"
   xmlns:cc="http://creativecommons.org/ns#"
   xmlns:rdf="http://www.w3.org/1999/02/22-rdf-syntax-ns#"
   xmlns:svg="http://www.w3.org/2000/svg"
   xmlns="http://www.w3.org/2000/svg"
   xmlns:sodipodi="http://sodipodi.sourceforge.net/DTD/sodipodi-0.dtd"
   xmlns:inkscape="http://www.inkscape.org/namespaces/inkscape"
   width="210mm"
   height="297mm"
   viewBox="0 0 210 297"
   version="1.1"
   id="svg9847"
   inkscape:version="0.92.3 (2405546, 2018-03-11)"
   sodipodi:docname="type-context.svg">
  <defs
     id="defs9841" />
  <sodipodi:namedview
     id="base"
     pagecolor="#ffffff"
     bordercolor="#666666"
     borderopacity="1.0"
     inkscape:pageopacity="0.0"
     inkscape:pageshadow="2"
     inkscape:zoom="1"
     inkscape:cx="400"
     inkscape:cy="560"
     inkscape:document-units="mm"
     inkscape:current-layer="layer1"
     showgrid="false"
     inkscape:window-width="1050"
     inkscape:window-height="1659"
     inkscape:window-x="0"
     inkscape:window-y="0"
     inkscape:window-maximized="1" />
  <metadata
     id="metadata9844">
    <rdf:RDF>
      <cc:Work
         rdf:about="">
        <dc:format>image/svg+xml</dc:format>
        <dc:type
           rdf:resource="http://purl.org/dc/dcmitype/StillImage" />
        <dc:title></dc:title>
      </cc:Work>
    </rdf:RDF>
  </metadata>
  <g
     inkscape:label="Layer 1"
     inkscape:groupmode="layer"
     id="layer1">
    <path
       style="fill:none;fill-rule:evenodd;stroke:#000000;stroke-width:0.56444448;stroke-linecap:butt;stroke-linejoin:miter;stroke-miterlimit:4;stroke-dasharray:none;stroke-opacity:1"
       d="m 88.968622,110.18173 v 31.2582"
       id="path3678-8-2-5-44-0-4"
       inkscape:connector-curvature="0"
       sodipodi:nodetypes="cc"
       inkscape:export-filename="/home/yky/latex/intro-2-strong-AI/predicate-logic-as-fibration.png"
       inkscape:export-xdpi="576"
       inkscape:export-ydpi="576" />
    <path
       style="color:#000000;clip-rule:nonzero;display:inline;overflow:visible;visibility:visible;opacity:1;isolation:auto;mix-blend-mode:normal;color-interpolation:sRGB;color-interpolation-filters:linearRGB;solid-color:#000000;solid-opacity:1;fill:#000000;fill-opacity:0.13186813;fill-rule:evenodd;stroke:#000000;stroke-width:0.84666669;stroke-linecap:butt;stroke-linejoin:miter;stroke-miterlimit:4;stroke-dasharray:none;stroke-dashoffset:0;stroke-opacity:0.98431373;color-rendering:auto;image-rendering:auto;shape-rendering:auto;text-rendering:auto;enable-background:accumulate"
       d="m 19.824176,156.82104 c 0,-8.72854 5.141874,-23.98889 52.493336,-22.86 47.338008,1.12858 53.904448,14.13146 53.904448,22.86"
       id="path3336-6-9-5-1-6-8-9"
       inkscape:connector-curvature="0"
       sodipodi:nodetypes="csc"
       inkscape:export-filename="/home/yky/latex/intro-2-strong-AI/predicate-logic-as-fibration.png"
       inkscape:export-xdpi="576"
       inkscape:export-ydpi="576" />
    <text
       id="text5041-50-3-56-2"
       y="142.89044"
       x="87.263985"
       style="font-style:normal;font-variant:normal;font-weight:normal;font-stretch:normal;font-size:5.64444447px;line-height:125%;font-family:Arial;-inkscape-font-specification:'Arial, Normal';text-align:start;letter-spacing:0px;word-spacing:0px;writing-mode:lr-tb;text-anchor:start;fill:#000000;fill-opacity:1;stroke:none;stroke-width:0.28222224px;stroke-linecap:butt;stroke-linejoin:miter;stroke-opacity:1"
       xml:space="preserve"
       inkscape:export-filename="/home/yky/latex/intro-2-strong-AI/predicate-logic-as-fibration.png"
       inkscape:export-xdpi="576"
       inkscape:export-ydpi="576"><tspan
         style="stroke-width:0.28222224px"
         y="142.89044"
         x="87.263985"
         id="tspan5043-36-2-1-2"
         sodipodi:role="line">●</tspan></text>
    <path
       style="color:#000000;clip-rule:nonzero;display:inline;overflow:visible;visibility:visible;opacity:1;isolation:auto;mix-blend-mode:normal;color-interpolation:sRGB;color-interpolation-filters:linearRGB;solid-color:#000000;solid-opacity:1;fill:#d5f6ff;fill-opacity:1;fill-rule:evenodd;stroke:#0000ff;stroke-width:0.84666669;stroke-linecap:butt;stroke-linejoin:miter;stroke-miterlimit:4;stroke-dasharray:none;stroke-dashoffset:0;stroke-opacity:0.98431373;color-rendering:auto;image-rendering:auto;shape-rendering:auto;text-rendering:auto;enable-background:accumulate"
       d="M 83.920213,109.19951 C 96.420162,115.41684 111.71669,86.249927 98.031326,77.872839 87.995117,71.72947 54.120523,64.806224 52.593547,78.437283 c -1.580756,14.111111 24.231621,4.405912 28.786666,11.571111 4.582351,7.208155 -2.986283,16.442416 2.54,19.191116 z"
       id="path3336-6-9-5-3-5-9"
       inkscape:connector-curvature="0"
       sodipodi:nodetypes="sssss"
       inkscape:export-filename="/home/yky/latex/intro-2-strong-AI/predicate-logic-as-fibration.png"
       inkscape:export-xdpi="576"
       inkscape:export-ydpi="576" />
    <text
       id="text5041-50-3-5-1-7"
       y="92.355736"
       x="-103.70802"
       style="font-style:normal;font-variant:normal;font-weight:normal;font-stretch:normal;font-size:5.64444447px;line-height:125%;font-family:Arial;-inkscape-font-specification:'Arial, Normal';text-align:start;letter-spacing:0px;word-spacing:0px;writing-mode:lr-tb;text-anchor:start;fill:#808080;fill-opacity:1;stroke:none;stroke-width:0.28222224px;stroke-linecap:butt;stroke-linejoin:miter;stroke-opacity:1"
       xml:space="preserve"
       transform="rotate(-90)"
       inkscape:export-filename="/home/yky/latex/intro-2-strong-AI/predicate-logic-as-fibration.png"
       inkscape:export-xdpi="576"
       inkscape:export-ydpi="576"><tspan
         style="stroke-width:0.28222224px"
         y="92.355736"
         x="-103.70802"
         id="tspan5043-36-2-4-0-5"
         sodipodi:role="line">●</tspan></text>
    <text
       id="text5041-50-3-0-91-8-1"
       y="99.094856"
       x="-87.339134"
       style="font-style:normal;font-variant:normal;font-weight:normal;font-stretch:normal;font-size:5.64444447px;line-height:125%;font-family:Arial;-inkscape-font-specification:'Arial, Normal';text-align:start;letter-spacing:0px;word-spacing:0px;writing-mode:lr-tb;text-anchor:start;fill:#808080;fill-opacity:1;stroke:none;stroke-width:0.28222224px;stroke-linecap:butt;stroke-linejoin:miter;stroke-opacity:1"
       xml:space="preserve"
       transform="rotate(-90)"
       inkscape:export-filename="/home/yky/latex/intro-2-strong-AI/predicate-logic-as-fibration.png"
       inkscape:export-xdpi="576"
       inkscape:export-ydpi="576"><tspan
         style="stroke-width:0.28222224px"
         y="99.094856"
         x="-87.339134"
         id="tspan5043-36-2-6-77-9-2"
         sodipodi:role="line">●</tspan></text>
    <text
       xml:space="preserve"
       style="font-style:normal;font-variant:normal;font-weight:normal;font-stretch:normal;font-size:5.64444447px;line-height:125%;font-family:Arial;-inkscape-font-specification:'Arial, Normal';text-align:start;letter-spacing:0px;word-spacing:0px;writing-mode:lr-tb;text-anchor:start;fill:#000000;fill-opacity:1;stroke:none;stroke-width:0.28222224px;stroke-linecap:butt;stroke-linejoin:miter;stroke-opacity:1"
       x="50.759476"
       y="143.7269"
       id="text5045-9-3"
       inkscape:export-filename="/home/yky/latex/intro-2-strong-AI/predicate-logic-as-fibration.png"
       inkscape:export-xdpi="576"
       inkscape:export-ydpi="576"><tspan
         sodipodi:role="line"
         id="tspan5047-2-6"
         x="50.759476"
         y="143.7269"
         style="text-align:center;text-anchor:middle;stroke-width:0.28222224px">●</tspan><tspan
         sodipodi:role="line"
         x="50.759476"
         y="150.78246"
         id="tspan5089-4-8"
         style="text-align:center;text-anchor:middle;stroke-width:0.28222224px">Females</tspan></text>
    <text
       xml:space="preserve"
       style="font-style:normal;font-variant:normal;font-weight:normal;font-stretch:normal;font-size:5.64444447px;line-height:125%;font-family:Arial;-inkscape-font-specification:'Arial, Normal';text-align:start;letter-spacing:0px;word-spacing:0px;writing-mode:lr-tb;text-anchor:start;fill:#000000;fill-opacity:1;stroke:none;stroke-width:0.28222224px;stroke-linecap:butt;stroke-linejoin:miter;stroke-opacity:1"
       x="67.379166"
       y="150.54158"
       id="text15465-0"
       inkscape:export-filename="/home/yky/latex/intro-2-strong-AI/predicate-logic-as-fibration.png"
       inkscape:export-xdpi="576"
       inkscape:export-ydpi="576"><tspan
         style="stroke-width:0.28222224px"
         sodipodi:role="line"
         id="tspan15467-2"
         x="67.379166"
         y="150.54158">Mathematicians</tspan></text>
    <path
       style="fill:none;fill-rule:evenodd;stroke:#000000;stroke-width:0.56444448;stroke-linecap:butt;stroke-linejoin:miter;stroke-miterlimit:4;stroke-dasharray:none;stroke-opacity:1"
       d="m 50.868622,122.35155 v 18.80616"
       id="path3678-8-2-5-4-0-5"
       inkscape:connector-curvature="0"
       sodipodi:nodetypes="cc"
       inkscape:export-filename="/home/yky/latex/intro-2-strong-AI/predicate-logic-as-fibration.png"
       inkscape:export-xdpi="576"
       inkscape:export-ydpi="576" />
    <path
       style="color:#000000;clip-rule:nonzero;display:inline;overflow:visible;visibility:visible;opacity:1;isolation:auto;mix-blend-mode:normal;color-interpolation:sRGB;color-interpolation-filters:linearRGB;solid-color:#000000;solid-opacity:1;fill:#ffa1a1;fill-opacity:0.54901961;fill-rule:evenodd;stroke:#ff0000;stroke-width:0.84666669;stroke-linecap:butt;stroke-linejoin:miter;stroke-miterlimit:4;stroke-dasharray:none;stroke-dashoffset:0;stroke-opacity:0.98431373;color-rendering:auto;image-rendering:auto;shape-rendering:auto;text-rendering:auto;enable-background:accumulate"
       d="m 51.629757,72.591614 c 11.066555,0 15.951483,6.068963 13.546667,23.98889 -2.54,18.927236 -4.737889,25.964446 -15.804444,25.964446 -11.066555,0 -2.883437,-13.83998 -2.822223,-25.117779 0.07835,-14.435922 -5.986555,-24.835557 5.08,-24.835557 z"
       id="path3336-6-9-5-0-1"
       inkscape:connector-curvature="0"
       sodipodi:nodetypes="sssss"
       inkscape:export-filename="/home/yky/latex/intro-2-strong-AI/predicate-logic-as-fibration.png"
       inkscape:export-xdpi="576"
       inkscape:export-ydpi="576" />
    <text
       id="text5041-50-3-0-3-3-1"
       y="52.445271"
       x="-108.30457"
       style="font-style:normal;font-variant:normal;font-weight:normal;font-stretch:normal;font-size:5.64444447px;line-height:125%;font-family:Arial;-inkscape-font-specification:'Arial, Normal';text-align:start;letter-spacing:0px;word-spacing:0px;writing-mode:lr-tb;text-anchor:start;fill:#808080;fill-opacity:1;stroke:none;stroke-width:0.28222224px;stroke-linecap:butt;stroke-linejoin:miter;stroke-opacity:1"
       xml:space="preserve"
       transform="rotate(-90)"
       inkscape:export-filename="/home/yky/latex/intro-2-strong-AI/predicate-logic-as-fibration.png"
       inkscape:export-xdpi="576"
       inkscape:export-ydpi="576"><tspan
         style="stroke-width:0.28222224px"
         y="52.445271"
         x="-108.30457"
         id="tspan5043-36-2-6-1-1-0"
         sodipodi:role="line">●</tspan></text>
    <text
       id="text5041-50-3-0-9-7-8"
       y="58.936386"
       x="-81.352348"
       style="font-style:normal;font-variant:normal;font-weight:normal;font-stretch:normal;font-size:5.64444447px;line-height:125%;font-family:Arial;-inkscape-font-specification:'Arial, Normal';text-align:start;letter-spacing:0px;word-spacing:0px;writing-mode:lr-tb;text-anchor:start;fill:#808080;fill-opacity:1;stroke:none;stroke-width:0.28222224px;stroke-linecap:butt;stroke-linejoin:miter;stroke-opacity:1"
       xml:space="preserve"
       transform="rotate(-90)"
       inkscape:export-filename="/home/yky/latex/intro-2-strong-AI/predicate-logic-as-fibration.png"
       inkscape:export-xdpi="576"
       inkscape:export-ydpi="576"><tspan
         style="stroke-width:0.28222224px"
         y="58.936386"
         x="-81.352348"
         id="tspan5043-36-2-6-2-8-5"
         sodipodi:role="line">●</tspan></text>
    <text
       xml:space="preserve"
       style="font-style:normal;font-variant:normal;font-weight:normal;font-stretch:normal;font-size:5.64444447px;line-height:125%;font-family:Arial;-inkscape-font-specification:'Arial, Normal';text-align:start;letter-spacing:0px;word-spacing:0px;writing-mode:lr-tb;text-anchor:start;fill:#808080;fill-opacity:1;stroke:none;stroke-width:0.28222224px;stroke-linecap:butt;stroke-linejoin:miter;stroke-opacity:1"
       x="51.108841"
       y="67.36647"
       id="text5045-9-9"
       inkscape:export-filename="/home/yky/latex/intro-2-strong-AI/predicate-logic-as-fibration.png"
       inkscape:export-xdpi="576"
       inkscape:export-ydpi="576"><tspan
         sodipodi:role="line"
         x="51.108841"
         y="67.36647"
         id="tspan5089-4-81"
         style="text-align:center;text-anchor:middle;fill:#808080;stroke-width:0.28222224px">Emmy Noether</tspan></text>
    <text
       id="text21148"
       y="109.31781"
       x="5.9218636"
       style="font-style:normal;font-variant:normal;font-weight:normal;font-stretch:normal;font-size:5.64444447px;line-height:125%;font-family:Arial;-inkscape-font-specification:'Arial, Normal';text-align:start;letter-spacing:0px;word-spacing:0px;writing-mode:lr-tb;text-anchor:start;fill:#808080;fill-opacity:1;stroke:none;stroke-width:0.28222224px;stroke-linecap:butt;stroke-linejoin:miter;stroke-opacity:1"
       xml:space="preserve"
       inkscape:export-filename="/home/yky/latex/intro-2-strong-AI/predicate-logic-as-fibration.png"
       inkscape:export-xdpi="576"
       inkscape:export-ydpi="576"><tspan
         style="stroke-width:0.28222224px"
         y="109.31781"
         x="5.9218636"
         id="tspan21150"
         sodipodi:role="line">Hillary Clinton</tspan></text>
    <text
       id="text21156"
       y="86.457809"
       x="106.6752"
       style="font-style:normal;font-variant:normal;font-weight:normal;font-stretch:normal;font-size:5.64444447px;line-height:125%;font-family:Arial;-inkscape-font-specification:'Arial, Normal';text-align:start;letter-spacing:0px;word-spacing:0px;writing-mode:lr-tb;text-anchor:start;fill:#808080;fill-opacity:1;stroke:none;stroke-width:0.28222224px;stroke-linecap:butt;stroke-linejoin:miter;stroke-opacity:1"
       xml:space="preserve"
       inkscape:export-filename="/home/yky/latex/intro-2-strong-AI/predicate-logic-as-fibration.png"
       inkscape:export-xdpi="576"
       inkscape:export-ydpi="576"><tspan
         style="stroke-width:0.28222224px"
         y="86.457809"
         x="106.6752"
         id="tspan21158"
         sodipodi:role="line">Poincare</tspan></text>
    <text
       id="text21160"
       y="109.88226"
       x="99.901871"
       style="font-style:normal;font-variant:normal;font-weight:normal;font-stretch:normal;font-size:5.64444447px;line-height:125%;font-family:Arial;-inkscape-font-specification:'Arial, Normal';text-align:start;letter-spacing:0px;word-spacing:0px;writing-mode:lr-tb;text-anchor:start;fill:#808080;fill-opacity:1;stroke:none;stroke-width:0.28222224px;stroke-linecap:butt;stroke-linejoin:miter;stroke-opacity:1"
       xml:space="preserve"
       inkscape:export-filename="/home/yky/latex/intro-2-strong-AI/predicate-logic-as-fibration.png"
       inkscape:export-xdpi="576"
       inkscape:export-ydpi="576"><tspan
         style="stroke-width:0.28222224px"
         y="109.88226"
         x="99.901871"
         id="tspan21162"
         sodipodi:role="line">Riemann</tspan></text>
    <g
       transform="matrix(0.28222223,0,0,0.5275059,-5.353576,-56.028134)"
       inkscape:label="Layer 1"
       id="layer1-1-3"
       inkscape:export-filename="/home/yky/latex/intro-2-strong-AI/predicate-logic-as-fibration.png"
       inkscape:export-xdpi="576"
       inkscape:export-ydpi="576">
      <g
         transform="matrix(-0.20634921,0,0,0.72265114,552.39489,120.67011)"
         style="font-style:normal;font-variant:normal;font-weight:normal;font-stretch:normal;font-size:64px;line-height:125%;font-family:'Latin Modern Math';-inkscape-font-specification:'Latin Modern Math';text-align:center;letter-spacing:0px;word-spacing:0px;writing-mode:lr-tb;text-anchor:middle;fill:#4d4d4d;fill-opacity:1;stroke:none"
         id="flowRoot6939-1">
        <path
           d="m 179.75619,399.02851 c -15.8381,-5.04692 -26.11059,-15.1561 -29.93864,-38.59417 l -8.38841,-51.35994 c -4.70025,-28.77839 -20.93109,-36.8129 -38.58668,-43.04735 17.13631,-5.93755 34.62022,-14.26491 38.58668,-40.37544 l 8.38841,-55.21935 c 3.56081,-23.44013 13.58126,-32.65661 29.93864,-38.89105 -15.8381,0.29687 -15.23894,2.37503 -21.21069,7.71883 -7.26995,6.8282 -16.28422,18.11981 -19.03371,36.21915 l -8.38841,55.21935 c -3.2453,21.36315 -29.57913,29.39096 -44.897963,35.32851 16.097753,5.93757 40.906253,12.48534 44.897963,36.21915 l 8.38841,49.87555 c 3.44286,20.47041 11.50412,32.06286 18.25478,38.89105 5.71211,5.64068 5.11295,7.71883 21.98962,8.01571"
           style="font-size:300px;font-family:'TeX Gyre Pagella';-inkscape-font-specification:'TeX Gyre Pagella';fill:#4d4d4d;stroke:none"
           id="path7003-1"
           inkscape:connector-curvature="0"
           sodipodi:nodetypes="csscssccsscsscc" />
      </g>
    </g>
    <g
       id="g21500"
       transform="matrix(0.14111111,0,0,0.14111111,1.946834,113.79941)"
       inkscape:export-filename="/home/yky/latex/intro-2-strong-AI/predicate-logic-as-fibration.png"
       inkscape:export-xdpi="576"
       inkscape:export-ydpi="576">
      <g
         word-spacing="normal"
         letter-spacing="normal"
         font-size-adjust="none"
         font-stretch="normal"
         font-weight="normal"
         font-variant="normal"
         font-style="normal"
         stroke-miterlimit="10.433"
         xml:space="preserve"
         transform="matrix(1.0629921,0,0,-1.0629921,-186.02362,789.27165)"
         id="g21502"
         style="font-style:normal;font-variant:normal;font-weight:normal;font-stretch:normal;letter-spacing:normal;word-spacing:normal;text-anchor:start;fill:none;fill-opacity:1;fill-rule:evenodd;stroke:#000000;stroke-linecap:butt;stroke-linejoin:miter;stroke-miterlimit:10.43299961;stroke-dasharray:none;stroke-dashoffset:0;stroke-opacity:1"><path
           id="path21504"
           d="m 461.83,416.86 v 0.38 l 0.01,0.36 0.01,0.36 0.02,0.35 0.03,0.34 0.03,0.34 0.04,0.32 0.04,0.32 0.05,0.31 0.05,0.3 0.05,0.29 0.06,0.29 0.14,0.54 0.15,0.52 0.16,0.49 0.19,0.46 0.19,0.43 0.21,0.4 0.22,0.37 0.23,0.35 0.24,0.33 0.25,0.3 0.26,0.28 0.26,0.25 0.27,0.23 0.28,0.21 0.27,0.19 0.28,0.17 0.29,0.15 0.28,0.13 0.28,0.11 0.28,0.09 0.28,0.08 0.28,0.06 0.27,0.05 0.26,0.03 0.26,0.02 0.25,0.01 c 0.45,0 3.59,-0.05 5.33,-1.84 -2.04,-0.15 -2.34,-1.64 -2.34,-2.29 0,-1.3 0.9,-2.3 2.29,-2.3 1.3,0 2.29,0.85 2.29,2.34 0,3.4 -3.78,5.34 -7.62,5.34 -6.22,0 -10.8,-5.38 -10.8,-11.56 0,-6.38 4.92,-11.31 10.7,-11.31 6.68,0 8.27,5.98 8.27,6.48 0,0.5 -0.49,0.5 -0.65,0.5 -0.44,0 -0.54,-0.2 -0.64,-0.5 -1.45,-4.63 -4.68,-5.23 -6.53,-5.23 -2.64,0 -7.02,2.14 -7.02,10.16 z"
           inkscape:connector-curvature="0"
           style="fill:#000000;stroke-width:0" /><path
           id="path21506"
           d="m 494.59,409.79 0.02,-0.19 0.03,-0.19 0.03,-0.19 0.04,-0.18 0.05,-0.19 0.06,-0.18 0.06,-0.18 0.07,-0.18 0.07,-0.18 0.08,-0.18 0.09,-0.17 0.1,-0.16 0.1,-0.17 0.1,-0.15 0.12,-0.16 0.12,-0.14 0.12,-0.15 0.13,-0.13 0.14,-0.13 0.15,-0.12 0.15,-0.12 0.15,-0.1 0.17,-0.1 0.17,-0.09 0.17,-0.08 0.18,-0.07 0.19,-0.07 0.19,-0.05 0.2,-0.04 0.21,-0.03 0.21,-0.01 0.21,-0.01 c 1.05,0 4.09,0.7 4.09,4.73 v 2.79 h -1.25 v -2.79 c 0,-2.89 -1.24,-3.18 -1.79,-3.18 -1.64,0 -1.84,2.24 -1.84,2.48 v 9.97 c 0,2.09 0,4.03 -1.8,5.88 -1.94,1.94 -4.43,2.74 -6.82,2.74 -4.09,0 -7.52,-2.34 -7.52,-5.63 0,-1.5 0.99,-2.34 2.29,-2.34 1.39,0 2.29,0.99 2.29,2.29 0,0.59 -0.25,2.24 -2.54,2.29 1.35,1.74 3.78,2.29 5.38,2.29 2.44,0 5.28,-1.94 5.28,-6.38 v -1.84 -1.04 -4.99 c 0,-4.73 -3.59,-6.42 -5.83,-6.42 -2.44,0 -4.48,1.74 -4.48,4.23 0,2.74 2.09,6.88 10.31,7.18 v 0 1.04 c -2.54,-0.15 -6.03,-0.3 -9.17,-1.79 -3.73,-1.69 -4.98,-4.28 -4.98,-6.48 0,-4.03 4.84,-5.28 7.97,-5.28 3.29,0 5.58,2 6.53,4.34 z"
           inkscape:connector-curvature="0"
           style="fill:#000000;stroke-width:0" /><path
           id="path21508"
           d="m 511.62,425.93 h 7.12 v 1.54 h -7.12 v 9.17 h -1.25 c -0.05,-4.09 -1.54,-9.42 -6.42,-9.62 v -1.09 h 4.23 v -13.75 c 0,-6.13 4.63,-6.73 6.42,-6.73 3.55,0 4.94,3.54 4.94,6.73 v 2.84 h -1.25 v -2.74 c 0,-3.69 -1.49,-5.58 -3.33,-5.58 -3.34,0 -3.34,4.53 -3.34,5.38 z"
           inkscape:connector-curvature="0"
           style="fill:#000000;stroke-width:0" /><path
           id="path21510"
           d="m 527.53,417.51 0.05,1.04 c 0.3,7.43 4.48,8.67 6.18,8.67 5.13,0 5.63,-6.72 5.63,-8.67 h -11.81 l -0.05,-1.04 h 13.9 c 1.09,0 1.24,0 1.24,1.04 0,4.93 -2.69,9.77 -8.91,9.77 -5.78,0 -10.36,-5.14 -10.36,-11.36 0,-6.67 5.22,-11.51 10.95,-11.51 6.08,0 8.32,5.53 8.32,6.48 0,0.5 -0.4,0.6 -0.65,0.6 -0.44,0 -0.54,-0.3 -0.64,-0.7 -1.75,-5.13 -6.23,-5.13 -6.73,-5.13 -2.49,0 -4.48,1.49 -5.63,3.34 -1.49,2.39 -1.49,5.67 -1.49,7.47 z"
           inkscape:connector-curvature="0"
           style="fill:#000000;stroke-width:0" /><path
           id="path21512"
           d="m 549.28,412.62 v 0.03 0.02 0.04 0.03 0.04 l 0.01,0.05 v 0.05 0.05 l 0.01,0.06 0.01,0.07 0.01,0.06 0.01,0.07 0.01,0.07 0.01,0.08 0.02,0.08 0.02,0.08 0.02,0.08 0.02,0.08 0.03,0.09 0.03,0.09 0.03,0.09 0.04,0.09 0.04,0.09 0.04,0.1 0.05,0.09 0.05,0.1 0.05,0.09 0.06,0.1 0.06,0.09 0.07,0.1 0.07,0.09 0.08,0.09 c 1.94,-1.39 3.98,-1.54 4.93,-1.54 v 1.15 c -4.33,0 -4.33,4.98 -4.33,6.13 0,1.34 0.04,2.93 0.79,4.18 0.4,0.6 1.55,1.99 3.54,1.99 4.33,0 4.33,-4.98 4.33,-6.12 0,-1.35 -0.05,-2.95 -0.8,-4.19 -0.39,-0.6 -1.54,-1.99 -3.53,-1.99 v 0 -1.15 c 4.63,0 8.07,3.44 8.07,7.28 0,1.84 -0.8,3.68 -2.04,4.83 1.79,1.69 3.58,1.94 4.48,1.94 0.1,0 0.35,0 0.5,-0.05 -0.55,-0.2 -0.8,-0.75 -0.8,-1.35 0,-0.84 0.65,-1.44 1.45,-1.44 0.5,0 1.44,0.35 1.44,1.49 0,0.85 -0.6,2.45 -2.54,2.45 -1,0 -3.19,-0.3 -5.28,-2.35 -2.09,1.65 -4.18,1.8 -5.28,1.8 -4.63,0 -8.07,-3.44 -8.07,-7.27 0,-2.2 1.1,-4.09 2.34,-5.14 -0.65,-0.74 -1.55,-2.39 -1.55,-4.13 0,-1.55 0.65,-3.44 2.2,-4.43 -2.99,-0.85 -4.58,-2.99 -4.58,-4.98 0,-3.59 4.93,-6.33 11,-6.33 l 0.05,1.14 c -5.03,0 -8.47,2.55 -8.47,5.19 0,2.29 1.9,4.13 4.09,4.28 h 2.94 c 4.28,0 9.86,0 9.86,-4.28 0,-2.69 -3.53,-5.19 -8.42,-5.19 v 0 l -0.05,-1.14 c 5.88,0 11.06,2.54 11.06,6.42 0,1.75 -0.69,4.29 -3.24,5.68 -2.63,1.4 -5.52,1.4 -8.56,1.4 -1.25,0 -3.39,0 -3.74,0.05 -1.59,0.2 -2.64,1.74 -2.64,3.33 z"
           inkscape:connector-curvature="0"
           style="fill:#000000;stroke-width:0" /><path
           id="path21514"
           d="m 592.46,416.66 -0.01,0.59 -0.05,0.59 -0.07,0.58 -0.09,0.57 -0.13,0.56 -0.15,0.55 -0.17,0.54 -0.2,0.53 -0.22,0.52 -0.25,0.5 -0.26,0.49 -0.29,0.47 -0.31,0.46 -0.33,0.44 -0.35,0.42 -0.36,0.41 -0.39,0.39 -0.4,0.36 -0.41,0.35 -0.44,0.33 -0.44,0.3 -0.46,0.29 -0.48,0.26 -0.48,0.23 -0.5,0.21 -0.51,0.19 -0.52,0.16 -0.53,0.13 -0.54,0.1 -0.55,0.08 -0.56,0.04 -0.56,0.02 -0.05,-1.1 c 2.19,0 4.34,-1.1 5.63,-3.24 1.3,-2.14 1.3,-5.03 1.3,-6.92 0,-1.79 0,-4.49 -1.1,-6.68 -1.09,-2.24 -3.28,-3.68 -5.78,-3.68 v 0 c -2.14,0 -4.33,1.04 -5.68,3.34 -1.24,2.19 -1.24,5.23 -1.24,7.02 0,1.94 0,4.63 1.2,6.82 1.34,2.3 3.68,3.34 5.67,3.34 l 0.05,1.1 c -6.22,0 -11.05,-5.43 -11.05,-11.66 0,-6.43 5.17,-11.21 11,-11.21 6.03,0 11.06,4.88 11.06,11.21 z"
           inkscape:connector-curvature="0"
           style="fill:#000000;stroke-width:0" /><path
           id="path21516"
           d="m 602.32,422.54 v 5.48 l -6.92,-0.55 v -1.54 c 3.48,0 3.88,-0.35 3.88,-2.79 v -13.35 c 0,-2.25 -0.55,-2.25 -3.88,-2.25 V 406 h 12 v 1.54 h -1.05 c -3.68,0 -3.78,0.55 -3.78,2.35 v 7.66 c 0,4.94 2.09,9.37 5.88,9.37 0.34,0 0.45,0 0.54,-0.05 -0.15,-0.05 -1.14,-0.65 -1.14,-1.94 0,-1.39 1.05,-2.14 2.14,-2.14 0.9,0 2.14,0.59 2.14,2.19 0,1.59 -1.54,3.04 -3.68,3.04 -3.64,0 -5.43,-3.34 -6.13,-5.48 z"
           inkscape:connector-curvature="0"
           style="fill:#000000;stroke-width:0" /><path
           id="path21518"
           d="m 633.67,422.74 0.06,0.14 0.07,0.14 0.06,0.14 0.07,0.13 0.07,0.13 0.07,0.12 0.07,0.12 0.07,0.12 0.15,0.21 0.15,0.21 0.16,0.19 0.16,0.17 0.16,0.16 0.17,0.15 0.17,0.13 0.17,0.13 0.17,0.11 0.17,0.1 0.17,0.09 0.17,0.08 0.16,0.07 0.17,0.06 0.16,0.06 0.16,0.04 0.16,0.04 0.15,0.04 0.15,0.03 0.14,0.02 0.13,0.02 0.13,0.01 0.13,0.01 0.11,0.01 h 0.11 0.1 l 0.09,0.01 h 0.07 v 1.54 h -8.07 v -1.54 c 1.55,-0.05 2.35,-0.9 2.35,-2.14 0,-0.5 -0.05,-0.61 -0.3,-1.2 l -5.03,-12.26 -5.53,13.4 c -0.2,0.5 -0.3,0.7 -0.3,0.9 0,1.3 1.84,1.3 2.79,1.3 v 1.54 h -10.26 v -1.54 c 2.39,0 3.33,0 4.03,-1.75 L 625.45,406 c -0.25,-0.65 -0.94,-2.29 -1.24,-2.94 -1.1,-2.74 -2.49,-6.18 -5.68,-6.18 -0.25,0 -1.4,0 -2.34,0.9 1.54,0.2 1.94,1.29 1.94,2.09 0,1.3 -0.95,2.09 -2.09,2.09 -1,0 -2.09,-0.64 -2.09,-2.14 0,-2.24 2.09,-4.03 4.58,-4.03 3.14,0 5.18,2.84 6.38,5.68 z"
           inkscape:connector-curvature="0"
           style="fill:#000000;stroke-width:0" /><path
           id="path21520"
           d="m 679.46,416.66 -0.01,0.59 -0.05,0.59 -0.07,0.58 -0.09,0.57 -0.13,0.56 -0.15,0.55 -0.17,0.54 -0.2,0.53 -0.22,0.52 -0.25,0.5 -0.26,0.49 -0.29,0.47 -0.31,0.46 -0.33,0.44 -0.35,0.42 -0.36,0.41 -0.39,0.39 -0.4,0.36 -0.41,0.35 -0.44,0.33 -0.44,0.3 -0.46,0.29 -0.48,0.26 -0.48,0.23 -0.5,0.21 -0.51,0.19 -0.52,0.16 -0.53,0.13 -0.54,0.1 -0.55,0.08 -0.56,0.04 -0.56,0.02 -0.05,-1.1 c 2.19,0 4.34,-1.1 5.63,-3.24 1.3,-2.14 1.3,-5.03 1.3,-6.92 0,-1.79 0,-4.49 -1.1,-6.68 -1.09,-2.24 -3.28,-3.68 -5.78,-3.68 v 0 c -2.14,0 -4.33,1.04 -5.68,3.34 -1.24,2.19 -1.24,5.23 -1.24,7.02 0,1.94 0,4.63 1.2,6.82 1.34,2.3 3.68,3.34 5.67,3.34 l 0.05,1.1 c -6.22,0 -11.05,-5.43 -11.05,-11.66 0,-6.43 5.17,-11.21 11,-11.21 6.03,0 11.06,4.88 11.06,11.21 z"
           inkscape:connector-curvature="0"
           style="fill:#000000;stroke-width:0" /><path
           id="path21522"
           d="m 689.72,427.47 v 5.78 c 0,4.38 2.39,6.77 4.58,6.77 0.15,0 0.9,0 1.65,-0.35 -0.6,-0.2 -1.5,-0.84 -1.5,-2.09 0,-1.14 0.8,-2.14 2.14,-2.14 1.44,0 2.19,1 2.19,2.19 0,1.84 -1.84,3.49 -4.48,3.49 -3.49,0 -7.72,-2.64 -7.72,-7.92 v -5.73 h -3.93 v -1.54 h 3.93 v -16.14 c 0,-2.25 -0.55,-2.25 -3.88,-2.25 V 406 h 12 v 1.54 h -1.05 c -3.68,0 -3.78,0.55 -3.78,2.35 v 16.04 h 5.68 v 1.54 z"
           inkscape:connector-curvature="0"
           style="fill:#000000;stroke-width:0" /><path
           id="path21524"
           d="m 737.02,426.62 -7.22,1.55 c -1.99,0.44 -4.78,2.14 -4.78,5.18 0,2.14 1.39,5.23 6.38,5.23 3.98,0 9.01,-1.7 10.16,-8.47 0.2,-1.2 0.2,-1.3 1.24,-1.3 1.2,0 1.2,0.25 1.2,1.4 v 9.11 c 0,0.95 0,1.4 -0.9,1.4 -0.4,0 -0.45,-0.05 -1,-0.55 l -2.24,-2.19 c -2.88,2.29 -6.12,2.74 -8.51,2.74 -7.58,0 -11.16,-4.78 -11.16,-10.01 0,-3.24 1.64,-5.53 2.69,-6.63 2.44,-2.44 4.13,-2.79 9.56,-3.98 4.38,-0.95 5.23,-1.1 6.33,-2.14 0.75,-0.75 1.99,-2.05 1.99,-4.34 0,-2.39 -1.29,-5.83 -6.48,-5.83 -3.78,0 -11.35,1 -11.75,8.42 -0.05,0.9 -0.05,1.15 -1.15,1.15 -1.19,0 -1.19,-0.3 -1.19,-1.45 v -9.06 c 0,-0.95 0,-1.4 0.9,-1.4 0.44,0 0.54,0.1 0.94,0.45 l 2.29,2.29 c 3.29,-2.44 7.92,-2.74 9.96,-2.74 8.22,0 11.31,5.63 11.31,10.66 0,5.53 -4.03,9.57 -8.57,10.51 z"
           inkscape:connector-curvature="0"
           style="fill:#000000;stroke-width:0" /><path
           id="path21526"
           d="m 772.02,416.86 h 0.1 0.09 0.1 0.09 0.09 l 0.08,0.01 h 0.08 l 0.08,0.01 0.07,0.01 0.07,0.01 0.07,0.01 0.06,0.02 0.06,0.02 0.06,0.02 0.05,0.03 0.05,0.03 0.05,0.03 0.04,0.04 0.05,0.04 0.03,0.05 0.04,0.05 0.03,0.06 0.01,0.03 0.02,0.03 0.01,0.03 0.01,0.04 0.02,0.03 0.01,0.04 0.01,0.04 0.01,0.04 v 0.04 l 0.01,0.05 0.01,0.04 0.01,0.05 v 0.05 l 0.01,0.05 v 0.05 0.06 l 0.01,0.05 v 0.06 0.06 0.06 c 0,1.55 -0.3,5.18 -2.79,7.68 -1.84,1.79 -4.48,2.69 -7.92,2.69 -7.97,0 -12.31,-5.14 -12.31,-11.36 0,-6.68 4.98,-11.51 13,-11.51 7.88,0 10.02,5.28 10.02,6.13 0,0.9 -0.95,0.9 -1.2,0.9 -0.84,0 -0.94,-0.25 -1.24,-1.05 -1.05,-2.39 -3.89,-3.98 -7.13,-3.98 -7.02,0 -7.07,6.62 -7.07,9.16 v 1.64 c 0.1,1.95 0.15,4.04 1.19,5.68 1.3,2 3.29,2.59 4.74,2.59 5.83,0 5.92,-6.52 5.98,-8.27 h -11.91 v -1.64 z"
           inkscape:connector-curvature="0"
           style="fill:#000000;stroke-width:0" /><path
           id="path21528"
           d="m 780.13,425.78 v -13.65 c 0,-5.33 4.34,-6.43 7.87,-6.43 3.78,0 6.03,2.84 6.03,6.48 v 2.64 h -2.34 v -2.54 c 0,-3.39 -1.6,-4.58 -2.99,-4.58 -2.89,0 -2.89,3.18 -2.89,4.33 v 13.75 h 7.27 v 2.34 h -7.27 v 9.51 h -2.34 c -0.05,-4.98 -2.49,-9.91 -7.42,-10.06 v -1.79 z"
           inkscape:connector-curvature="0"
           style="fill:#000000;stroke-width:0" /><path
           id="path21530"
           d="m 807.51,420.64 -0.17,0.04 -0.19,0.03 -0.19,0.04 -0.2,0.04 -0.2,0.04 -0.2,0.04 -0.42,0.1 -0.42,0.11 -0.22,0.06 -0.21,0.07 -0.2,0.07 -0.21,0.07 -0.2,0.08 -0.2,0.09 -0.19,0.09 -0.19,0.1 -0.18,0.1 -0.17,0.11 -0.16,0.12 -0.15,0.12 -0.14,0.14 -0.14,0.14 -0.11,0.15 -0.11,0.15 -0.09,0.17 -0.04,0.09 -0.04,0.09 -0.03,0.09 -0.03,0.09 -0.02,0.1 -0.02,0.09 -0.02,0.11 -0.01,0.1 -0.01,0.1 v 0.11 c 0,3.09 4.63,3.09 5.58,3.09 3.74,0 5.63,-1.44 5.88,-4.18 0.05,-0.75 0.09,-1 1.14,-1 1.2,0 1.2,0.25 1.2,1.39 v 3.99 c 0,0.95 0,1.4 -0.9,1.4 -0.2,0 -0.3,0 -2.24,-0.95 -1.3,0.65 -3.04,0.95 -5.03,0.95 -1.5,0 -9.16,0 -9.16,-6.53 0,-1.99 0.99,-3.34 1.99,-4.18 1.99,-1.75 3.88,-2.05 7.71,-2.74 1.8,-0.3 5.54,-0.95 5.54,-3.89 0,-3.73 -4.59,-3.73 -5.68,-3.73 -5.28,0 -6.58,3.63 -7.18,5.77 -0.25,0.7 -0.5,0.7 -1.19,0.7 -1.19,0 -1.19,-0.3 -1.19,-1.44 v -5.43 c 0,-0.95 0,-1.4 0.89,-1.4 0.35,0 0.45,0 1.49,0.75 0.05,0 1.15,0.75 1.3,0.85 2.29,-1.6 4.88,-1.6 5.88,-1.6 1.54,0 9.21,0 9.21,7.27 0,2.15 -0.99,3.89 -2.74,5.28 -1.94,1.45 -3.53,1.75 -7.42,2.39 z"
           inkscape:connector-curvature="0"
           style="fill:#000000;stroke-width:0" /></g>    </g>
    <g
       id="g22921"
       transform="matrix(0.14111111,0,0,0.14111111,107.73931,59.894966)"
       inkscape:export-filename="/home/yky/latex/intro-2-strong-AI/predicate-logic-as-fibration.png"
       inkscape:export-xdpi="576"
       inkscape:export-ydpi="576">
      <g
         word-spacing="normal"
         letter-spacing="normal"
         font-size-adjust="none"
         font-stretch="normal"
         font-weight="normal"
         font-variant="normal"
         font-style="normal"
         stroke-miterlimit="10.433"
         xml:space="preserve"
         transform="matrix(1.0629921,0,0,-1.0629921,-186.02362,789.27165)"
         id="g22923"
         style="font-style:normal;font-variant:normal;font-weight:normal;font-stretch:normal;letter-spacing:normal;word-spacing:normal;text-anchor:start;fill:none;fill-opacity:1;fill-rule:evenodd;stroke:#000000;stroke-linecap:butt;stroke-linejoin:miter;stroke-miterlimit:10.43299961;stroke-dasharray:none;stroke-dashoffset:0;stroke-opacity:1"><path
           id="path22925"
           d="m 461.83,416.86 v 0.38 l 0.01,0.36 0.01,0.36 0.02,0.35 0.03,0.34 0.03,0.34 0.04,0.32 0.04,0.32 0.05,0.31 0.05,0.3 0.05,0.29 0.06,0.29 0.14,0.54 0.15,0.52 0.16,0.49 0.19,0.46 0.19,0.43 0.21,0.4 0.22,0.37 0.23,0.35 0.24,0.33 0.25,0.3 0.26,0.28 0.26,0.25 0.27,0.23 0.28,0.21 0.27,0.19 0.28,0.17 0.29,0.15 0.28,0.13 0.28,0.11 0.28,0.09 0.28,0.08 0.28,0.06 0.27,0.05 0.26,0.03 0.26,0.02 0.25,0.01 c 0.45,0 3.59,-0.05 5.33,-1.84 -2.04,-0.15 -2.34,-1.64 -2.34,-2.29 0,-1.3 0.9,-2.3 2.29,-2.3 1.3,0 2.29,0.85 2.29,2.34 0,3.4 -3.78,5.34 -7.62,5.34 -6.22,0 -10.8,-5.38 -10.8,-11.56 0,-6.38 4.92,-11.31 10.7,-11.31 6.68,0 8.27,5.98 8.27,6.48 0,0.5 -0.49,0.5 -0.65,0.5 -0.44,0 -0.54,-0.2 -0.64,-0.5 -1.45,-4.63 -4.68,-5.23 -6.53,-5.23 -2.64,0 -7.02,2.14 -7.02,10.16 z"
           inkscape:connector-curvature="0"
           style="fill:#000000;stroke-width:0" /><path
           id="path22927"
           d="m 494.59,409.79 0.02,-0.19 0.03,-0.19 0.03,-0.19 0.04,-0.18 0.05,-0.19 0.06,-0.18 0.06,-0.18 0.07,-0.18 0.07,-0.18 0.08,-0.18 0.09,-0.17 0.1,-0.16 0.1,-0.17 0.1,-0.15 0.12,-0.16 0.12,-0.14 0.12,-0.15 0.13,-0.13 0.14,-0.13 0.15,-0.12 0.15,-0.12 0.15,-0.1 0.17,-0.1 0.17,-0.09 0.17,-0.08 0.18,-0.07 0.19,-0.07 0.19,-0.05 0.2,-0.04 0.21,-0.03 0.21,-0.01 0.21,-0.01 c 1.05,0 4.09,0.7 4.09,4.73 v 2.79 h -1.25 v -2.79 c 0,-2.89 -1.24,-3.18 -1.79,-3.18 -1.64,0 -1.84,2.24 -1.84,2.48 v 9.97 c 0,2.09 0,4.03 -1.8,5.88 -1.94,1.94 -4.43,2.74 -6.82,2.74 -4.09,0 -7.52,-2.34 -7.52,-5.63 0,-1.5 0.99,-2.34 2.29,-2.34 1.39,0 2.29,0.99 2.29,2.29 0,0.59 -0.25,2.24 -2.54,2.29 1.35,1.74 3.78,2.29 5.38,2.29 2.44,0 5.28,-1.94 5.28,-6.38 v -1.84 -1.04 -4.99 c 0,-4.73 -3.59,-6.42 -5.83,-6.42 -2.44,0 -4.48,1.74 -4.48,4.23 0,2.74 2.09,6.88 10.31,7.18 v 0 1.04 c -2.54,-0.15 -6.03,-0.3 -9.17,-1.79 -3.73,-1.69 -4.98,-4.28 -4.98,-6.48 0,-4.03 4.84,-5.28 7.97,-5.28 3.29,0 5.58,2 6.53,4.34 z"
           inkscape:connector-curvature="0"
           style="fill:#000000;stroke-width:0" /><path
           id="path22929"
           d="m 511.62,425.93 h 7.12 v 1.54 h -7.12 v 9.17 h -1.25 c -0.05,-4.09 -1.54,-9.42 -6.42,-9.62 v -1.09 h 4.23 v -13.75 c 0,-6.13 4.63,-6.73 6.42,-6.73 3.55,0 4.94,3.54 4.94,6.73 v 2.84 h -1.25 v -2.74 c 0,-3.69 -1.49,-5.58 -3.33,-5.58 -3.34,0 -3.34,4.53 -3.34,5.38 z"
           inkscape:connector-curvature="0"
           style="fill:#000000;stroke-width:0" /><path
           id="path22931"
           d="m 527.53,417.51 0.05,1.04 c 0.3,7.43 4.48,8.67 6.18,8.67 5.13,0 5.63,-6.72 5.63,-8.67 h -11.81 l -0.05,-1.04 h 13.9 c 1.09,0 1.24,0 1.24,1.04 0,4.93 -2.69,9.77 -8.91,9.77 -5.78,0 -10.36,-5.14 -10.36,-11.36 0,-6.67 5.22,-11.51 10.95,-11.51 6.08,0 8.32,5.53 8.32,6.48 0,0.5 -0.4,0.6 -0.65,0.6 -0.44,0 -0.54,-0.3 -0.64,-0.7 -1.75,-5.13 -6.23,-5.13 -6.73,-5.13 -2.49,0 -4.48,1.49 -5.63,3.34 -1.49,2.39 -1.49,5.67 -1.49,7.47 z"
           inkscape:connector-curvature="0"
           style="fill:#000000;stroke-width:0" /><path
           id="path22933"
           d="m 549.28,412.62 v 0.03 0.02 0.04 0.03 0.04 l 0.01,0.05 v 0.05 0.05 l 0.01,0.06 0.01,0.07 0.01,0.06 0.01,0.07 0.01,0.07 0.01,0.08 0.02,0.08 0.02,0.08 0.02,0.08 0.02,0.08 0.03,0.09 0.03,0.09 0.03,0.09 0.04,0.09 0.04,0.09 0.04,0.1 0.05,0.09 0.05,0.1 0.05,0.09 0.06,0.1 0.06,0.09 0.07,0.1 0.07,0.09 0.08,0.09 c 1.94,-1.39 3.98,-1.54 4.93,-1.54 v 1.15 c -4.33,0 -4.33,4.98 -4.33,6.13 0,1.34 0.04,2.93 0.79,4.18 0.4,0.6 1.55,1.99 3.54,1.99 4.33,0 4.33,-4.98 4.33,-6.12 0,-1.35 -0.05,-2.95 -0.8,-4.19 -0.39,-0.6 -1.54,-1.99 -3.53,-1.99 v 0 -1.15 c 4.63,0 8.07,3.44 8.07,7.28 0,1.84 -0.8,3.68 -2.04,4.83 1.79,1.69 3.58,1.94 4.48,1.94 0.1,0 0.35,0 0.5,-0.05 -0.55,-0.2 -0.8,-0.75 -0.8,-1.35 0,-0.84 0.65,-1.44 1.45,-1.44 0.5,0 1.44,0.35 1.44,1.49 0,0.85 -0.6,2.45 -2.54,2.45 -1,0 -3.19,-0.3 -5.28,-2.35 -2.09,1.65 -4.18,1.8 -5.28,1.8 -4.63,0 -8.07,-3.44 -8.07,-7.27 0,-2.2 1.1,-4.09 2.34,-5.14 -0.65,-0.74 -1.55,-2.39 -1.55,-4.13 0,-1.55 0.65,-3.44 2.2,-4.43 -2.99,-0.85 -4.58,-2.99 -4.58,-4.98 0,-3.59 4.93,-6.33 11,-6.33 l 0.05,1.14 c -5.03,0 -8.47,2.55 -8.47,5.19 0,2.29 1.9,4.13 4.09,4.28 h 2.94 c 4.28,0 9.86,0 9.86,-4.28 0,-2.69 -3.53,-5.19 -8.42,-5.19 v 0 l -0.05,-1.14 c 5.88,0 11.06,2.54 11.06,6.42 0,1.75 -0.69,4.29 -3.24,5.68 -2.63,1.4 -5.52,1.4 -8.56,1.4 -1.25,0 -3.39,0 -3.74,0.05 -1.59,0.2 -2.64,1.74 -2.64,3.33 z"
           inkscape:connector-curvature="0"
           style="fill:#000000;stroke-width:0" /><path
           id="path22935"
           d="m 592.46,416.66 -0.01,0.59 -0.05,0.59 -0.07,0.58 -0.09,0.57 -0.13,0.56 -0.15,0.55 -0.17,0.54 -0.2,0.53 -0.22,0.52 -0.25,0.5 -0.26,0.49 -0.29,0.47 -0.31,0.46 -0.33,0.44 -0.35,0.42 -0.36,0.41 -0.39,0.39 -0.4,0.36 -0.41,0.35 -0.44,0.33 -0.44,0.3 -0.46,0.29 -0.48,0.26 -0.48,0.23 -0.5,0.21 -0.51,0.19 -0.52,0.16 -0.53,0.13 -0.54,0.1 -0.55,0.08 -0.56,0.04 -0.56,0.02 -0.05,-1.1 c 2.19,0 4.34,-1.1 5.63,-3.24 1.3,-2.14 1.3,-5.03 1.3,-6.92 0,-1.79 0,-4.49 -1.1,-6.68 -1.09,-2.24 -3.28,-3.68 -5.78,-3.68 v 0 c -2.14,0 -4.33,1.04 -5.68,3.34 -1.24,2.19 -1.24,5.23 -1.24,7.02 0,1.94 0,4.63 1.2,6.82 1.34,2.3 3.68,3.34 5.67,3.34 l 0.05,1.1 c -6.22,0 -11.05,-5.43 -11.05,-11.66 0,-6.43 5.17,-11.21 11,-11.21 6.03,0 11.06,4.88 11.06,11.21 z"
           inkscape:connector-curvature="0"
           style="fill:#000000;stroke-width:0" /><path
           id="path22937"
           d="m 602.32,422.54 v 5.48 l -6.92,-0.55 v -1.54 c 3.48,0 3.88,-0.35 3.88,-2.79 v -13.35 c 0,-2.25 -0.55,-2.25 -3.88,-2.25 V 406 h 12 v 1.54 h -1.05 c -3.68,0 -3.78,0.55 -3.78,2.35 v 7.66 c 0,4.94 2.09,9.37 5.88,9.37 0.34,0 0.45,0 0.54,-0.05 -0.15,-0.05 -1.14,-0.65 -1.14,-1.94 0,-1.39 1.05,-2.14 2.14,-2.14 0.9,0 2.14,0.59 2.14,2.19 0,1.59 -1.54,3.04 -3.68,3.04 -3.64,0 -5.43,-3.34 -6.13,-5.48 z"
           inkscape:connector-curvature="0"
           style="fill:#000000;stroke-width:0" /><path
           id="path22939"
           d="m 633.67,422.74 0.06,0.14 0.07,0.14 0.06,0.14 0.07,0.13 0.07,0.13 0.07,0.12 0.07,0.12 0.07,0.12 0.15,0.21 0.15,0.21 0.16,0.19 0.16,0.17 0.16,0.16 0.17,0.15 0.17,0.13 0.17,0.13 0.17,0.11 0.17,0.1 0.17,0.09 0.17,0.08 0.16,0.07 0.17,0.06 0.16,0.06 0.16,0.04 0.16,0.04 0.15,0.04 0.15,0.03 0.14,0.02 0.13,0.02 0.13,0.01 0.13,0.01 0.11,0.01 h 0.11 0.1 l 0.09,0.01 h 0.07 v 1.54 h -8.07 v -1.54 c 1.55,-0.05 2.35,-0.9 2.35,-2.14 0,-0.5 -0.05,-0.61 -0.3,-1.2 l -5.03,-12.26 -5.53,13.4 c -0.2,0.5 -0.3,0.7 -0.3,0.9 0,1.3 1.84,1.3 2.79,1.3 v 1.54 h -10.26 v -1.54 c 2.39,0 3.33,0 4.03,-1.75 L 625.45,406 c -0.25,-0.65 -0.94,-2.29 -1.24,-2.94 -1.1,-2.74 -2.49,-6.18 -5.68,-6.18 -0.25,0 -1.4,0 -2.34,0.9 1.54,0.2 1.94,1.29 1.94,2.09 0,1.3 -0.95,2.09 -2.09,2.09 -1,0 -2.09,-0.64 -2.09,-2.14 0,-2.24 2.09,-4.03 4.58,-4.03 3.14,0 5.18,2.84 6.38,5.68 z"
           inkscape:connector-curvature="0"
           style="fill:#000000;stroke-width:0" /><path
           id="path22941"
           d="m 679.46,416.66 -0.01,0.59 -0.05,0.59 -0.07,0.58 -0.09,0.57 -0.13,0.56 -0.15,0.55 -0.17,0.54 -0.2,0.53 -0.22,0.52 -0.25,0.5 -0.26,0.49 -0.29,0.47 -0.31,0.46 -0.33,0.44 -0.35,0.42 -0.36,0.41 -0.39,0.39 -0.4,0.36 -0.41,0.35 -0.44,0.33 -0.44,0.3 -0.46,0.29 -0.48,0.26 -0.48,0.23 -0.5,0.21 -0.51,0.19 -0.52,0.16 -0.53,0.13 -0.54,0.1 -0.55,0.08 -0.56,0.04 -0.56,0.02 -0.05,-1.1 c 2.19,0 4.34,-1.1 5.63,-3.24 1.3,-2.14 1.3,-5.03 1.3,-6.92 0,-1.79 0,-4.49 -1.1,-6.68 -1.09,-2.24 -3.28,-3.68 -5.78,-3.68 v 0 c -2.14,0 -4.33,1.04 -5.68,3.34 -1.24,2.19 -1.24,5.23 -1.24,7.02 0,1.94 0,4.63 1.2,6.82 1.34,2.3 3.68,3.34 5.67,3.34 l 0.05,1.1 c -6.22,0 -11.05,-5.43 -11.05,-11.66 0,-6.43 5.17,-11.21 11,-11.21 6.03,0 11.06,4.88 11.06,11.21 z"
           inkscape:connector-curvature="0"
           style="fill:#000000;stroke-width:0" /><path
           id="path22943"
           d="m 689.72,427.47 v 5.78 c 0,4.38 2.39,6.77 4.58,6.77 0.15,0 0.9,0 1.65,-0.35 -0.6,-0.2 -1.5,-0.84 -1.5,-2.09 0,-1.14 0.8,-2.14 2.14,-2.14 1.44,0 2.19,1 2.19,2.19 0,1.84 -1.84,3.49 -4.48,3.49 -3.49,0 -7.72,-2.64 -7.72,-7.92 v -5.73 h -3.93 v -1.54 h 3.93 v -16.14 c 0,-2.25 -0.55,-2.25 -3.88,-2.25 V 406 h 12 v 1.54 h -1.05 c -3.68,0 -3.78,0.55 -3.78,2.35 v 16.04 h 5.68 v 1.54 z"
           inkscape:connector-curvature="0"
           style="fill:#000000;stroke-width:0" /><path
           id="path22945"
           d="m 731.4,421.04 -0.3,2.05 v 14.74 h 6.72 c 7.47,0 7.47,-3.79 7.47,-7.37 0,-3.54 0,-7.37 -7.52,-7.37 v 0 h -6.67 l 0.3,-2.05 h 8.82 c 6.92,0 12.69,3.59 12.69,9.42 0,5.48 -4.93,9.71 -13.19,9.71 h -20.78 v -2.34 h 5.38 v -29.49 h -5.38 V 406 h 17.84 v 2.34 h -5.38 z"
           inkscape:connector-curvature="0"
           style="fill:#000000;stroke-width:0" /><path
           id="path22947"
           d="m 766.11,422.79 v 5.62 l -8.27,-0.39 v -2.34 c 3.09,0 3.44,0 3.44,-1.95 v -15.39 h -3.44 V 406 h 13.15 v 2.34 h -4.33 v 8.72 c 0,3.49 1.25,9.56 6.23,9.56 -0.05,-0.05 -0.95,-0.84 -0.95,-2.29 0,-2.04 1.59,-3.04 3.04,-3.04 1.44,0 3.04,1.05 3.04,3.04 0,2.64 -2.69,4.08 -5.28,4.08 -3.49,0 -5.48,-2.48 -6.63,-5.62 z"
           inkscape:connector-curvature="0"
           style="fill:#000000;stroke-width:0" /><path
           id="path22949"
           d="m 803.02,416.86 h 0.1 0.09 0.1 0.09 0.09 l 0.08,0.01 h 0.08 l 0.08,0.01 0.07,0.01 0.07,0.01 0.07,0.01 0.06,0.02 0.06,0.02 0.06,0.02 0.05,0.03 0.05,0.03 0.05,0.03 0.04,0.04 0.05,0.04 0.03,0.05 0.04,0.05 0.03,0.06 0.01,0.03 0.02,0.03 0.01,0.03 0.01,0.04 0.02,0.03 0.01,0.04 0.01,0.04 0.01,0.04 v 0.04 l 0.01,0.05 0.01,0.04 0.01,0.05 v 0.05 l 0.01,0.05 v 0.05 0.06 l 0.01,0.05 v 0.06 0.06 0.06 c 0,1.55 -0.3,5.18 -2.79,7.68 -1.84,1.79 -4.48,2.69 -7.92,2.69 -7.97,0 -12.31,-5.14 -12.31,-11.36 0,-6.68 4.98,-11.51 13,-11.51 7.88,0 10.02,5.28 10.02,6.13 0,0.9 -0.95,0.9 -1.2,0.9 -0.84,0 -0.94,-0.25 -1.24,-1.05 -1.05,-2.39 -3.89,-3.98 -7.13,-3.98 -7.02,0 -7.07,6.62 -7.07,9.16 v 1.64 c 0.1,1.95 0.15,4.04 1.19,5.68 1.3,2 3.29,2.59 4.74,2.59 5.83,0 5.92,-6.52 5.98,-8.27 h -11.91 v -1.64 z"
           inkscape:connector-curvature="0"
           style="fill:#000000;stroke-width:0" /><path
           id="path22951"
           d="m 826.82,408.14 v -2.44 l 9.12,0.3 v 2.34 c -3.09,0 -3.44,0 -3.44,1.95 v 30.28 l -8.82,-0.4 v -2.34 c 3.09,0 3.44,0 3.44,-1.94 v -9.71 c -2.49,1.94 -5.08,2.23 -6.72,2.23 l 0.5,-1.79 c 2.83,0 4.83,-1.59 5.92,-3.03 v 0 -12.46 c -0.64,-0.9 -2.69,-3.63 -6.47,-3.63 -6.08,0 -6.08,6.02 -6.08,9.51 0,2.39 0,5.08 1.29,7.02 1.45,2.09 3.79,2.59 5.34,2.59 l -0.5,1.79 c -7.28,0 -12.5,-4.38 -12.5,-11.4 0,-6.58 4.58,-11.31 11.95,-11.31 3.04,0 5.43,1.2 6.97,2.44 z"
           inkscape:connector-curvature="0"
           style="fill:#000000;stroke-width:0" /></g>    </g>
  </g>
</svg>
